<svg width="69" height="69" viewBox="0 0 69 69" fill="none" xmlns="http://www.w3.org/2000/svg">
<rect width="68.3719" height="68.3719" rx="17.6943" fill="white"/>
<path d="M32.3801 32.1597H23.4111C20.9749 32.1597 19 34.1346 19 36.5708V43.9921C19 46.4283 20.9749 48.4032 23.4111 48.4032H32.3801C34.8163 48.4032 36.7912 46.4283 36.7912 43.9921V36.5708C36.7912 34.1346 34.8163 32.1597 32.3801 32.1597Z" stroke="#BE34FF" stroke-width="1.45718" stroke-miterlimit="10"/>
<path d="M45.4234 20H30.2505C27.8143 20 25.8394 21.9749 25.8394 24.4111V36.1235C25.8394 38.5597 27.8143 40.5346 30.2505 40.5346H45.4234C47.8596 40.5346 49.8346 38.5597 49.8346 36.1235V24.4111C49.8346 21.9749 47.8596 20 45.4234 20Z" stroke="#BE34FF" stroke-width="1.45718" stroke-miterlimit="10"/>
<path d="M45.3514 24.1053V26.1329L43.4242 24.1053H45.3514Z" fill="white" stroke="#BE34FF" stroke-width="1.45718"/>
<path d="M44.7496 24.8596L38.3462 30.8056" stroke="#BE34FF" stroke-width="1.45718" stroke-miterlimit="10"/>
</svg>
