<svg width="20" height="21" viewBox="0 0 20 21" fill="none" xmlns="http://www.w3.org/2000/svg">
<path d="M6.5 1C6.5 0.723858 6.27614 0.5 6 0.5C5.72386 0.5 5.5 0.723858 5.5 1H6.5ZM5.5 4C5.5 4.27614 5.72386 4.5 6 4.5C6.27614 4.5 6.5 4.27614 6.5 4H5.5ZM14.5 1C14.5 0.723858 14.2761 0.5 14 0.5C13.7239 0.5 13.5 0.723858 13.5 1H14.5ZM13.5 4C13.5 4.27614 13.7239 4.5 14 4.5C14.2761 4.5 14.5 4.27614 14.5 4H13.5ZM4 3H16V2H4V3ZM16 20H4V21H16V20ZM1.5 17.5V7.5H0.5V17.5H1.5ZM1.5 7.5V5.5H0.5V7.5H1.5ZM18.5 5.5V7.5H19.5V5.5H18.5ZM18.5 7.5V17.5H19.5V7.5H18.5ZM1 8H19V7H1V8ZM5.5 1V4H6.5V1H5.5ZM13.5 1V4H14.5V1H13.5ZM4 20C2.61929 20 1.5 18.8807 1.5 17.5H0.5C0.5 19.433 2.067 21 4 21V20ZM16 21C17.933 21 19.5 19.433 19.5 17.5H18.5C18.5 18.8807 17.3807 20 16 20V21ZM16 3C17.3807 3 18.5 4.11929 18.5 5.5H19.5C19.5 3.567 17.933 2 16 2V3ZM4 2C2.067 2 0.5 3.567 0.5 5.5H1.5C1.5 4.11929 2.61929 3 4 3V2Z" fill="#727272"/>
</svg>
