<svg width="22" height="18" viewBox="0 0 22 18" fill="none" xmlns="http://www.w3.org/2000/svg">
<path d="M4.21738 4.33333V4.33333C2.49774 4.33333 1.15679 5.82284 1.33681 7.53303L1.76787 11.6281C2.03672 14.1822 2.17114 15.4592 3.0269 16.2296C3.88266 17 5.16674 17 7.7349 17H14.2651C16.8333 17 18.1173 17 18.9731 16.2296C19.8289 15.4592 19.9633 14.1822 20.2321 11.6281L20.3309 10.6895C20.6291 7.85649 20.7782 6.43998 20.0298 5.48401C19.9451 5.37571 19.8529 5.27337 19.7541 5.17771C18.8817 4.33333 17.4574 4.33333 14.6087 4.33333V4.33333M4.21738 4.33333V4.33333C3.74473 2.66088 5.00128 1 6.73925 1H9.36653C10.022 1 10.3497 1 10.6597 1.06624C11.0169 1.14259 11.3573 1.28356 11.6639 1.48221C11.9299 1.65455 12.1616 1.88628 12.6251 2.34975L14.6087 4.33333M4.21738 4.33333H14.6087" stroke="#727272" stroke-linejoin="round"/>
</svg>
