<svg width="68" height="68" viewBox="0 0 68 68" fill="none" xmlns="http://www.w3.org/2000/svg">
<rect width="68" height="68" rx="17.6943" fill="white"/>
<path d="M46.6718 27.6337L40.0127 21L36.2432 24.7551L42.9023 31.3888L46.6718 27.6337Z" stroke="#BE34FF" stroke-width="1.45718" stroke-miterlimit="10"/>
<path d="M34.241 25.9517L25.9375 30.2445C25.9375 30.2445 21 42.7631 21 42.8971C21 43.031 21.8972 44.0588 21.8972 44.0588L28.9663 36.8667C29.0506 35.875 29.8856 35.0952 30.9032 35.0952C31.977 35.0952 32.8481 35.963 32.8481 37.0327C32.8481 38.1024 32.0231 38.9202 30.9895 38.9662L23.6474 45.8923L24.4924 47L38.6386 41.0176L41.4566 33.5056L34.239 25.9497L34.241 25.9517Z" stroke="#BE34FF" stroke-width="1.45718" stroke-miterlimit="10"/>
</svg>
