<?xml version="1.0" standalone="no"?>
<!DOCTYPE svg PUBLIC "-//W3C//DTD SVG 20010904//EN"
 "http://www.w3.org/TR/2001/REC-SVG-20010904/DTD/svg10.dtd">
<svg version="1.0" xmlns="http://www.w3.org/2000/svg"
 width="700.000000pt" height="700.000000pt" viewBox="0 0 700.000000 700.000000"
 preserveAspectRatio="xMidYMid meet">
<metadata>
Created by potrace 1.14, written by Peter Selinger 2001-2017
</metadata>
<g transform="translate(0.000000,700.000000) scale(0.100000,-0.100000)"
fill="#000000" stroke="none">
<path d="M568 6429 l-568 -570 0 -1332 c0 -899 4 -1344 11 -1370 13 -47 58
-99 107 -123 35 -18 80 -19 815 -20 l778 -1 565 566 c310 310 562 566 561 568
-2 1 -347 3 -766 3 -833 1 -801 -2 -865 58 -16 15 -37 45 -47 67 -18 38 -19
82 -19 813 l0 772 2208 -2 2207 -3 42 -27 c23 -15 54 -49 69 -75 l28 -47 0
-208 1 -208 285 0 285 1 284 284 284 284 1 464 c1 255 -3 486 -7 515 -7 40
-17 60 -48 91 -21 23 -54 47 -71 55 -28 12 -432 14 -2803 14 l-2770 1 -567
-570z"/>
<path d="M5127 4151 c-9 -3 -1137 -1128 -1137 -1135 0 0 341 -1 758 -1 416 0
773 -3 793 -8 51 -12 108 -62 133 -116 21 -46 21 -53 20 -736 -1 -763 2 -728
-66 -791 -67 -63 94 -59 -2218 -58 l-2115 0 -40 21 c-51 27 -80 58 -101 108
-14 33 -16 73 -15 238 1 153 -1 197 -11 198 -7 1 -134 2 -283 4 l-270 2 -287
-286 -288 -286 0 -473 c0 -308 4 -488 11 -516 6 -25 26 -59 46 -81 69 -73
-197 -67 2872 -67 l2764 0 570 570 571 571 0 1333 c1 777 -3 1346 -8 1365 -13
45 -61 100 -109 125 -42 21 -45 21 -810 22 -422 1 -773 -1 -780 -3z"/>
</g>
</svg>
