<svg width="35" height="41" viewBox="0 0 35 41" fill="none" xmlns="http://www.w3.org/2000/svg">
<path d="M25.5579 0.114176C25.4712 0.0172381 22.3462 0.152441 19.6268 3.10394C16.9075 6.05289 17.3259 9.43551 17.3871 9.52224C17.4483 9.60897 21.2646 9.74418 23.7008 6.31309C26.137 2.882 25.6446 0.213665 25.5579 0.114176ZM34.0119 30.045C33.8895 29.8001 28.0808 26.8971 28.6217 21.3155C29.1625 15.7314 32.8946 14.2008 32.9532 14.0349C33.0119 13.8691 31.4303 12.0197 29.7543 11.0834C28.5237 10.4234 27.1618 10.0452 25.7671 9.97632C25.4916 9.96866 24.535 9.73397 22.5681 10.2722C21.2722 10.6268 18.3514 11.7748 17.5478 11.8207C16.7417 11.8666 14.3437 10.4891 11.7647 10.1243C10.1142 9.8054 8.36421 10.4585 7.11167 10.961C5.86168 11.461 3.48416 12.8845 1.82091 16.6676C0.157662 20.4481 1.02755 26.4379 1.64999 28.3001C2.27244 30.1598 3.24436 33.2082 4.89741 35.4327C6.36678 37.9429 8.31574 39.6852 9.12951 40.277C9.94328 40.8689 12.2392 41.2617 13.831 40.4479C15.1116 39.6622 17.4228 39.2107 18.336 39.2439C19.2467 39.277 21.0427 39.6367 22.8819 40.6189C24.3385 41.1214 25.7161 40.9122 27.0962 40.351C28.4762 39.7872 30.4737 37.6495 32.8053 33.3154C33.6905 31.3001 34.0935 30.2108 34.0119 30.045Z" fill="white"/>
</svg>
