<svg width="504" height="166" viewBox="0 0 504 166" fill="none" xmlns="http://www.w3.org/2000/svg">
<path d="M132.037 117.78C132.049 126.424 128.714 134.741 122.725 141.01C121.626 141.996 120.492 142.936 119.351 143.847C119.336 143.847 119.336 143.847 119.336 143.863C117.05 144.327 114.723 144.56 112.389 144.561C97.7374 144.561 85.2296 135.32 80.4677 122.393L68.5236 91.2181C76.148 88.3908 82.6396 86.5838 90.6347 84.8248C93.0674 84.2739 95.5551 83.9989 98.0501 84.0052C116.835 84.0043 132.037 99.1316 132.037 117.78Z" fill="#38A592"/>
<path d="M113.765 39.6991C113.765 57.1182 99.5527 71.2439 82.0114 71.2439C64.4853 71.2439 50.2729 57.1182 50.2729 39.6991C50.2729 28.1982 56.4553 18.1385 65.7066 12.6163H65.7227C70.6423 9.68128 76.2735 8.13382 82.0114 8.14009C92.2401 8.14009 101.339 12.9502 107.14 20.4153H107.155C111.45 25.9364 113.775 32.7203 113.765 39.6991Z" fill="#49D0BF"/>
<path d="M119.336 143.863C117.855 145.03 116.345 146.139 114.772 147.201C102.911 155.193 88.5758 159.871 73.1564 159.871C38.5482 159.871 9.46573 136.34 1.2213 104.504C1.06852 103.927 0.931831 103.336 0.779058 102.744C0.733493 102.547 0.689714 102.334 0.656658 102.137C0.220888 99.9584 0.000953042 97.7424 0 95.521C0 77.3746 14.3965 62.5652 32.472 61.7918C32.9759 61.7604 33.4795 61.745 33.9828 61.7456C34.3804 61.7456 34.7771 61.7456 35.1737 61.7607C47.4787 62.0946 58.1345 68.9381 63.8139 78.9374C65.5134 81.886 66.739 85.0803 67.4465 88.4048L80.4734 122.393C85.2362 135.32 97.7396 144.561 112.395 144.561C114.727 144.561 117.051 144.326 119.336 143.863Z" fill="#49D0BF"/>
<path d="M154.07 41.5511C154.07 36.5036 155.067 32.0271 157.063 28.1213C159.118 24.2156 161.869 21.2112 165.315 19.1081C168.822 17.005 172.721 15.9534 177.014 15.9534C180.762 15.9534 184.027 16.7045 186.808 18.2067C189.649 19.709 191.916 21.6017 193.609 23.8851V16.7646H206.396V66.698H193.609V59.3973C191.977 61.7407 189.71 63.6936 186.808 65.2559C183.966 66.7581 180.671 67.5092 176.923 67.5092C172.691 67.5092 168.822 66.4276 165.315 64.2644C161.869 62.1013 159.118 59.0668 157.063 55.1611C155.067 51.1952 154.07 46.6586 154.07 41.5511ZM193.609 41.7313C193.609 38.6668 193.005 36.053 191.795 33.8898C190.586 31.6665 188.954 29.9841 186.898 28.8424C184.843 27.6406 182.636 27.0397 180.278 27.0397C177.92 27.0397 175.744 27.6106 173.749 28.7522C171.754 29.8939 170.121 31.5764 168.852 33.7997C167.643 35.9628 167.038 38.5466 167.038 41.5511C167.038 44.5555 167.643 47.1994 168.852 49.4827C170.121 51.706 171.754 53.4185 173.749 54.6203C175.804 55.822 177.981 56.4229 180.278 56.4229C182.636 56.4229 184.843 55.8521 186.898 54.7104C188.954 53.5086 190.586 51.8262 191.795 49.663C193.005 47.4397 193.609 44.7958 193.609 41.7313Z" fill="#404040"/>
<path d="M246.636 16.0436C252.622 16.0436 257.458 17.9364 261.146 21.7219C264.834 25.4474 266.678 30.6751 266.678 37.405V66.698H253.982V39.1175C253.982 35.1516 252.984 32.1172 250.989 30.0141C248.994 27.8509 246.274 26.7693 242.828 26.7693C239.321 26.7693 236.54 27.8509 234.484 30.0141C232.489 32.1172 231.492 35.1516 231.492 39.1175V66.698H218.796V16.7646H231.492V22.9838C233.185 20.8206 235.331 19.1381 237.931 17.9364C240.591 16.6745 243.493 16.0436 246.636 16.0436Z" fill="#404040"/>
<path d="M306.592 16.0436C312.577 16.0436 317.414 17.9364 321.102 21.7219C324.79 25.4474 326.634 30.6751 326.634 37.405V66.698H313.938V39.1175C313.938 35.1516 312.94 32.1172 310.945 30.0141C308.95 27.8509 306.229 26.7693 302.783 26.7693C299.277 26.7693 296.496 27.8509 294.44 30.0141C292.445 32.1172 291.447 35.1516 291.447 39.1175V66.698H278.751V16.7646H291.447V22.9838C293.14 20.8206 295.286 19.1381 297.886 17.9364C300.546 16.6745 303.448 16.0436 306.592 16.0436Z" fill="#404040"/>
<path d="M385.41 40.6497C385.41 42.4524 385.289 44.0748 385.047 45.5169H348.32C348.622 49.1222 349.891 51.9463 352.128 53.9893C354.365 56.0323 357.116 57.0538 360.381 57.0538C365.096 57.0538 368.452 55.0409 370.447 51.015H384.141C382.69 55.822 379.909 59.7879 375.797 62.9124C371.686 65.977 366.638 67.5092 360.653 67.5092C355.816 67.5092 351.463 66.4576 347.594 64.3546C343.785 62.1914 340.793 59.1569 338.616 55.2512C336.5 51.3454 335.442 46.8388 335.442 41.7313C335.442 36.5637 336.5 32.0271 338.616 28.1213C340.732 24.2156 343.695 21.2112 347.503 19.1081C351.312 17.005 355.695 15.9534 360.653 15.9534C365.429 15.9534 369.691 16.9749 373.44 19.0179C377.248 21.0609 380.181 23.9752 382.236 27.7608C384.352 31.4863 385.41 35.7826 385.41 40.6497ZM372.261 37.0444C372.2 33.7997 371.021 31.2159 368.724 29.293C366.427 27.3101 363.615 26.3187 360.29 26.3187C357.146 26.3187 354.486 27.2801 352.31 29.2029C350.194 31.0656 348.894 33.6795 348.41 37.0444H372.261Z" fill="#404040"/>
<path d="M407.373 0V66.698H394.677V0H407.373Z" fill="#404040"/>
<path d="M466.62 40.6497C466.62 42.4524 466.499 44.0748 466.258 45.5169H429.53C429.832 49.1222 431.102 51.9463 433.339 53.9893C435.575 56.0323 438.326 57.0538 441.591 57.0538C446.307 57.0538 449.662 55.0409 451.657 51.015H465.351C463.9 55.822 461.119 59.7879 457.008 62.9124C452.897 65.977 447.848 67.5092 441.863 67.5092C437.026 67.5092 432.673 66.4576 428.804 64.3546C424.995 62.1914 422.003 59.1569 419.826 55.2512C417.71 51.3454 416.652 46.8388 416.652 41.7313C416.652 36.5637 417.71 32.0271 419.826 28.1213C421.942 24.2156 424.905 21.2112 428.714 19.1081C432.522 17.005 436.906 15.9534 441.863 15.9534C446.639 15.9534 450.901 16.9749 454.65 19.0179C458.459 21.0609 461.391 23.9752 463.446 27.7608C465.562 31.4863 466.62 35.7826 466.62 40.6497ZM453.471 37.0444C453.41 33.7997 452.231 31.2159 449.934 29.293C447.637 27.3101 444.825 26.3187 441.5 26.3187C438.357 26.3187 435.696 27.2801 433.52 29.2029C431.404 31.0656 430.104 33.6795 429.62 37.0444H453.471Z" fill="#404040"/>
<path d="M488.583 24.516C490.216 21.8721 492.332 19.7991 494.931 18.2969C497.592 16.7947 500.614 16.0436 504 16.0436V29.293H500.645C496.654 29.293 493.632 30.2244 491.576 32.0872C489.581 33.9499 488.583 37.1947 488.583 41.8214V66.698H475.887V16.7646H488.583V24.516Z" fill="#404040"/>
<path d="M175.381 143.557C169.698 143.557 165.043 142.265 161.416 139.681C157.849 137.037 155.853 133.462 155.43 128.956H161.96C162.262 131.72 163.562 133.973 165.859 135.715C168.217 137.398 171.361 138.239 175.29 138.239C178.737 138.239 181.427 137.428 183.362 135.806C185.357 134.183 186.354 132.17 186.354 129.767C186.354 128.084 185.81 126.702 184.722 125.621C183.634 124.539 182.243 123.698 180.55 123.097C178.918 122.436 176.681 121.745 173.84 121.024C170.152 120.063 167.159 119.101 164.862 118.14C162.564 117.178 160.599 115.766 158.967 113.903C157.395 111.981 156.609 109.427 156.609 106.242C156.609 103.839 157.335 101.615 158.786 99.5724C160.237 97.5294 162.292 95.907 164.952 94.7052C167.612 93.5035 170.635 92.9026 174.021 92.9026C179.341 92.9026 183.634 94.2546 186.898 96.9586C190.163 99.6024 191.916 103.268 192.158 107.955H185.81C185.629 105.07 184.48 102.757 182.364 101.015C180.308 99.2119 177.467 98.3105 173.84 98.3105C170.635 98.3105 168.036 99.0616 166.041 100.564C164.045 102.066 163.048 103.929 163.048 106.152C163.048 108.075 163.622 109.667 164.771 110.929C165.98 112.131 167.461 113.092 169.215 113.813C170.968 114.474 173.326 115.225 176.288 116.067C179.855 117.028 182.697 117.959 184.813 118.861C186.929 119.762 188.742 121.084 190.254 122.827C191.765 124.569 192.551 126.883 192.612 129.767C192.612 132.411 191.886 134.784 190.435 136.887C188.984 138.93 186.959 140.553 184.359 141.754C181.759 142.956 178.767 143.557 175.381 143.557Z" fill="#404040"/>
<path d="M210.274 118.14C210.274 113.092 211.272 108.676 213.267 104.89C215.322 101.045 218.134 98.1002 221.701 96.0572C225.328 93.9541 229.409 92.9026 233.943 92.9026C238.659 92.9026 242.709 93.9842 246.095 96.1474C249.541 98.3105 252.02 101.075 253.531 104.44V93.6237H259.879V142.836H253.531V131.93C251.959 135.295 249.45 138.089 246.004 140.312C242.619 142.475 238.568 143.557 233.852 143.557C229.379 143.557 225.328 142.505 221.701 140.402C218.134 138.299 215.322 135.325 213.267 131.479C211.272 127.634 210.274 123.187 210.274 118.14ZM253.531 118.23C253.531 114.264 252.715 110.779 251.083 107.774C249.45 104.77 247.214 102.457 244.372 100.834C241.591 99.2119 238.508 98.4007 235.122 98.4007C231.616 98.4007 228.472 99.1818 225.691 100.744C222.91 102.306 220.703 104.59 219.071 107.594C217.499 110.539 216.713 114.054 216.713 118.14C216.713 122.166 217.499 125.711 219.071 128.775C220.703 131.78 222.91 134.093 225.691 135.715C228.472 137.278 231.616 138.059 235.122 138.059C238.508 138.059 241.591 137.248 244.372 135.625C247.214 134.003 249.45 131.69 251.083 128.685C252.715 125.681 253.531 122.196 253.531 118.23Z" fill="#404040"/>
<path d="M291.239 98.9415V129.496C291.239 132.501 291.813 134.574 292.962 135.715C294.111 136.857 296.136 137.428 299.038 137.428H304.842V142.836H298.041C293.567 142.836 290.242 141.814 288.065 139.771C285.889 137.668 284.8 134.243 284.8 129.496V98.9415H277.908V93.6237H284.8V81.2755H291.239V93.6237H304.842V98.9415H291.239Z" fill="#404040"/>
<path d="M330.274 93.6237V142.836H323.926V93.6237H330.274Z" fill="#404040"/>
<path d="M394.074 93.6237L364.691 166H358.071L367.684 142.566L347.37 93.6237H354.353L371.221 135.625L387.544 93.6237H394.074Z" fill="#404040"/>
<path d="M432.971 143.557C428.316 143.557 424.114 142.536 420.365 140.493C416.678 138.389 413.745 135.445 411.569 131.66C409.453 127.814 408.395 123.337 408.395 118.23C408.395 113.122 409.483 108.676 411.66 104.89C413.836 101.045 416.798 98.1002 420.547 96.0572C424.295 93.9541 428.497 92.9026 433.152 92.9026C437.807 92.9026 442.009 93.9541 445.758 96.0572C449.566 98.1002 452.529 101.045 454.645 104.89C456.821 108.676 457.91 113.122 457.91 118.23C457.91 123.277 456.821 127.724 454.645 131.569C452.468 135.415 449.476 138.389 445.667 140.493C441.858 142.536 437.626 143.557 432.971 143.557ZM432.971 138.059C436.236 138.059 439.258 137.338 442.039 135.896C444.82 134.394 447.057 132.17 448.75 129.226C450.503 126.222 451.38 122.556 451.38 118.23C451.38 113.903 450.534 110.268 448.841 107.324C447.148 104.319 444.911 102.096 442.13 100.654C439.349 99.1518 436.326 98.4007 433.061 98.4007C429.797 98.4007 426.774 99.1518 423.993 100.654C421.212 102.096 418.975 104.319 417.282 107.324C415.65 110.268 414.834 113.903 414.834 118.23C414.834 122.556 415.65 126.222 417.282 129.226C418.975 132.17 421.182 134.394 423.902 135.896C426.683 137.338 429.706 138.059 432.971 138.059Z" fill="#404040"/>
<path d="M484.444 102.367C485.835 99.302 487.951 96.9285 490.792 95.246C493.694 93.5636 497.231 92.7223 501.403 92.7223V99.302H499.68C495.085 99.302 491.397 100.534 488.616 102.997C485.835 105.461 484.444 109.577 484.444 115.346V142.836H478.096V93.6237H484.444V102.367Z" fill="#404040"/>
</svg>
