<svg width="9" height="16" viewBox="0 0 9 16" fill="none" xmlns="http://www.w3.org/2000/svg">
<path d="M8.49497 11.495C8.76834 11.2216 8.76834 10.7784 8.49497 10.505C8.22161 10.2317 7.77839 10.2317 7.50502 10.505L8.49497 11.495ZM4.5 14.5L4.00503 14.995C4.27839 15.2683 4.72161 15.2683 4.99497 14.995L4.5 14.5ZM1.49497 10.505C1.22161 10.2317 0.778392 10.2317 0.505025 10.505C0.231658 10.7784 0.231658 11.2216 0.505025 11.495L1.49497 10.505ZM5.2 1.5C5.2 1.1134 4.8866 0.8 4.5 0.8C4.1134 0.800001 3.8 1.1134 3.8 1.5L5.2 1.5ZM7.50502 10.505L4.00503 14.005L4.99497 14.995L8.49497 11.495L7.50502 10.505ZM4.99497 14.005L1.49497 10.505L0.505025 11.495L4.00503 14.995L4.99497 14.005ZM3.8 1.5L3.8 14.5L5.2 14.5L5.2 1.5L3.8 1.5Z" fill="white"/>
</svg>
