<svg width="23" height="23" viewBox="0 0 23 23" fill="none" xmlns="http://www.w3.org/2000/svg">
<path d="M11.3193 2.33405C14.336 2.33405 14.6933 2.34557 15.8847 2.39993C16.9863 2.45016 17.5845 2.63422 17.9826 2.78894C18.51 2.9939 18.8864 3.23873 19.2817 3.63407C19.6771 4.02945 19.9219 4.40582 20.1269 4.93319C20.2816 5.33131 20.4657 5.92954 20.5159 7.0311C20.5702 8.22245 20.5818 8.5798 20.5818 11.5965C20.5818 14.6133 20.5702 14.9706 20.5159 16.162C20.4657 17.2636 20.2816 17.8618 20.1269 18.2599C19.9219 18.7873 19.6771 19.1636 19.2817 19.559C18.8864 19.9544 18.51 20.1992 17.9826 20.4041C17.5845 20.5589 16.9863 20.7429 15.8847 20.7932C14.6935 20.8475 14.3362 20.859 11.3193 20.859C8.30226 20.859 7.945 20.8475 6.75378 20.7932C5.65221 20.7429 5.05398 20.5589 4.65586 20.4041C4.12849 20.1992 3.75212 19.9544 3.35678 19.559C2.96144 19.1636 2.71657 18.7873 2.51161 18.2599C2.35688 17.8618 2.17282 17.2636 2.12259 16.162C2.06824 14.9706 2.05671 14.6133 2.05671 11.5965C2.05671 8.5798 2.06824 8.22245 2.12259 7.0311C2.17282 5.92954 2.35688 5.33131 2.51161 4.93319C2.71657 4.40582 2.9614 4.02945 3.35678 3.63411C3.75212 3.23873 4.12849 2.9939 4.65586 2.78894C5.05398 2.63422 5.65221 2.45016 6.75378 2.39993C7.94513 2.34557 8.30249 2.33405 11.3193 2.33405ZM11.3193 0.29834C8.25082 0.29834 7.86607 0.311346 6.66099 0.36633C5.45842 0.421179 4.63711 0.612188 3.91846 0.891459C3.1755 1.18019 2.54543 1.56651 1.91728 2.19462C1.28918 2.82276 0.902851 3.45283 0.614162 4.19579C0.334846 4.91444 0.143836 5.73575 0.0889864 6.93831C0.0340021 8.14338 0.0209961 8.52814 0.0209961 11.5965C0.0209961 14.665 0.0340021 15.0497 0.0889864 16.2548C0.143836 17.4573 0.334846 18.2787 0.614162 18.9973C0.902851 19.7403 1.28918 20.3703 1.91728 20.9985C2.54543 21.6266 3.1755 22.0129 3.91846 22.3016C4.63711 22.5809 5.45842 22.7719 6.66099 22.8268C7.86607 22.8817 8.25082 22.8948 11.3193 22.8948C14.3877 22.8948 14.7724 22.8817 15.9775 22.8268C17.1801 22.7719 18.0014 22.5809 18.72 22.3016C19.463 22.0129 20.0931 21.6266 20.7212 20.9985C21.3493 20.3703 21.7356 19.7403 22.0244 18.9973C22.3036 18.2787 22.4946 17.4573 22.5495 16.2548C22.6045 15.0497 22.6175 14.665 22.6175 11.5965C22.6175 8.52814 22.6045 8.14338 22.5495 6.93831C22.4946 5.73575 22.3036 4.91444 22.0244 4.19579C21.7356 3.45283 21.3493 2.82276 20.7212 2.19462C20.0931 1.56651 19.463 1.18019 18.72 0.891459C18.0014 0.612188 17.1801 0.421179 15.9775 0.36633C14.7724 0.311346 14.3877 0.29834 11.3193 0.29834Z" fill="white"/>
<path d="M11.3243 5.80029C8.11999 5.80029 5.52246 8.39782 5.52246 11.6021C5.52246 14.8063 8.11999 17.4039 11.3243 17.4039C14.5285 17.4039 17.1261 14.8063 17.1261 11.6021C17.1261 8.39782 14.5285 5.80029 11.3243 5.80029ZM11.3243 15.3681C9.2443 15.3681 7.55818 13.682 7.55818 11.6021C7.55818 9.52212 9.2443 7.836 11.3243 7.836C13.4042 7.836 15.0903 9.52212 15.0903 11.6021C15.0903 13.682 13.4042 15.3681 11.3243 15.3681Z" fill="white"/>
<path d="M18.7111 5.56724C18.7111 6.31598 18.1041 6.92301 17.3553 6.92301C16.6065 6.92301 15.9995 6.31598 15.9995 5.56724C15.9995 4.81845 16.6065 4.21143 17.3553 4.21143C18.1041 4.21143 18.7111 4.81845 18.7111 5.56724Z" fill="white"/>
</svg>
