<svg width="355" height="356" viewBox="0 0 355 356" fill="none" xmlns="http://www.w3.org/2000/svg">
<g opacity="0.1">
<path d="M354.939 11.3913V59.7865L325.289 89.4362H295.762V70.5682C295.762 67.689 294.659 65.1161 292.76 63.1558C290.8 61.1342 288.043 59.8478 284.98 59.8478H59.1769V137.893C59.1769 143.835 63.9551 148.613 69.8973 148.613H147.942L118.476 178.14L88.8878 207.729H10.7204C4.77826 207.729 0 202.95 0 197.008V59.8478H0.122519L29.5884 30.2593L59.1769 0.670898H344.218C347.281 0.670898 350.038 1.95735 351.998 3.97892C353.836 5.87797 355 8.51214 355 11.3913H354.939Z" fill="white"/>
<path d="M354.939 157.312V296.31L295.701 355.549H10.7204C7.84124 355.549 5.26833 354.385 3.30802 352.547C1.28645 350.587 0 347.891 0 344.828V296.494L29.6497 266.844H59.1156V285.712C59.1156 288.775 60.4021 291.532 62.4236 293.431C64.3227 295.269 66.9569 296.433 69.8361 296.433H285.041C287.982 296.433 290.677 295.208 292.638 293.309C294.598 291.348 295.762 288.714 295.762 285.712V218.388C295.762 212.446 290.984 207.668 285.041 207.668H206.997L236.524 178.079L266.051 148.491H344.28C349.548 148.491 353.897 152.289 354.816 157.251L354.939 157.312Z" fill="white"/>
</g>
</svg>
