<svg width="38" height="41" viewBox="0 0 38 41" fill="none" xmlns="http://www.w3.org/2000/svg">
<path d="M3.40059 40.4994C3.01868 40.5061 2.63678 40.4409 2.27733 40.3062L20.3707 22.2061L26.3598 28.202L5.56846 39.8838C4.90994 40.27 4.1638 40.4819 3.40059 40.4994ZM0.785657 39.0054C0.417855 38.3393 0.234812 37.587 0.255482 36.8263V3.79149C0.252445 3.29003 0.328254 2.79121 0.480132 2.31329L18.9756 20.8132L0.778917 39.0099L0.785657 39.0054ZM28.1458 27.1933L21.7635 20.8155L28.8018 13.7794L35.0538 17.2907C36.2535 17.8299 37.0577 18.9868 37.1386 20.2988C37.0987 20.9433 36.8832 21.5646 36.5153 22.0953C36.1474 22.6259 35.6411 23.0457 35.0516 23.3091L28.1458 27.1933ZM20.3707 19.4137L1.63483 0.680088C2.14928 0.298182 2.77157 0.0959965 3.41182 0.09375C4.16664 0.120708 4.9035 0.334126 5.55723 0.716031L27.0136 12.7753L20.3729 19.4137H20.3707Z" fill="white"/>
</svg>
