<svg width="158" height="66" viewBox="0 0 158 66" fill="none" xmlns="http://www.w3.org/2000/svg">
<path d="M2 49.1891C22.5242 33.2703 47.9629 17.5274 74.3554 29.8268C80.3679 32.6288 85.7286 44.5142 85.7286 44.5142C85.7286 44.5142 77.1153 59.1952 70.0992 61.9577C64.5546 64.1409 57.5812 65.1952 52.7256 60.9809C45.4863 54.6977 52.5251 45.1662 57.6795 40.2929C80.9781 18.2652 116.28 12.2108 147.06 11.5112" stroke="black" stroke-width="3" stroke-linecap="round" stroke-dasharray="6 6"/>
<path d="M144 2.0918C147.944 5.60085 152.246 8.9699 155.931 12.7672C156.787 13.6493 155.74 14.9316 155.199 15.6628C153.048 18.5668 149.874 20.634 147.768 23.4426" stroke="black" stroke-width="3" stroke-linecap="round" stroke-dasharray="6 6"/>
</svg>
