<svg width="18" height="18" viewBox="0 0 18 18" stroke="currentColor" fill="currentColor" stroke-width="0"
     xmlns="http://www.w3.org/2000/svg">
    <path d="M2.12605 5.79618L2.30338 6.26368L2.30338 6.26368L2.12605 5.79618ZM14.2103 1.21251L14.3876 1.68001L14.3876 1.68001L14.2103 1.21251ZM16.7896 3.79181L17.2571 3.96914L16.7896 3.79181ZM12.2059 15.8761L11.7384 15.6987V15.6987L12.2059 15.8761ZM8.54707 16.0612L8.09986 16.2848L8.54707 16.0612ZM6.64317 12.2534L7.09038 12.0298L7.09038 12.0298L6.64317 12.2534ZM5.74874 11.3589L5.97235 10.9117L5.74874 11.3589ZM1.94093 9.45503L1.71732 9.90225L1.94093 9.45503ZM5.99147 11.3035C5.79621 11.4988 5.79621 11.8154 5.99147 12.0106C6.18673 12.2059 6.50332 12.2059 6.69858 12.0106L5.99147 11.3035ZM16.5981 2.11114C16.7933 1.91588 16.7933 1.59929 16.5981 1.40403C16.4028 1.20877 16.0862 1.20877 15.891 1.40403L16.5981 2.11114ZM2.30338 6.26368L14.3876 1.68001L14.033 0.745008L1.94872 5.32869L2.30338 6.26368ZM16.3221 3.61448L11.7384 15.6987L12.6734 16.0534L17.2571 3.96914L16.3221 3.61448ZM8.99428 15.8376L7.09038 12.0298L6.19595 12.477L8.09986 16.2848L8.99428 15.8376ZM5.97235 10.9117L2.16454 9.00782L1.71732 9.90225L5.52513 11.8062L5.97235 10.9117ZM7.09038 12.0298C6.84847 11.5459 6.45616 11.1536 5.97235 10.9117L5.52513 11.8062C5.81542 11.9513 6.05081 12.1867 6.19595 12.477L7.09038 12.0298ZM11.7384 15.6987C11.2749 16.9208 9.57882 17.0066 8.99428 15.8376L8.09986 16.2848C9.07408 18.2332 11.9008 18.0902 12.6734 16.0534L11.7384 15.6987ZM14.3876 1.68001C15.5967 1.22138 16.7807 2.40537 16.3221 3.61448L17.2571 3.96914C18.0215 1.95395 16.0481 -0.019373 14.033 0.745008L14.3876 1.68001ZM1.94872 5.32869C-0.0880935 6.10127 -0.231116 8.92803 1.71732 9.90225L2.16454 9.00782C0.995474 8.42329 1.08129 6.72723 2.30338 6.26368L1.94872 5.32869ZM6.69858 12.0106L16.5981 2.11114L15.891 1.40403L5.99147 11.3035L6.69858 12.0106Z"/>
</svg>
