<svg width="178" height="38" viewBox="0 0 178 38" fill="none" xmlns="http://www.w3.org/2000/svg">
<path d="M37.0983 1.12051V6.17879L33.9993 9.27778H30.9131V7.3057C30.9131 7.00476 30.7979 6.73584 30.5994 6.53095C30.3945 6.31965 30.1064 6.18519 29.7862 6.18519H6.18519V14.3425C6.18519 14.9635 6.68462 15.463 7.3057 15.463H15.463L12.3832 18.5492L9.29059 21.6418H1.12051C0.499425 21.6418 0 21.1423 0 20.5213V6.18519H0.0128058L3.0926 3.09259L6.18519 0H35.9778C36.298 0 36.5861 0.134461 36.791 0.345756C36.9831 0.544246 37.1047 0.81957 37.1047 1.12051H37.0983Z" fill="white"/>
<path d="M37.0983 16.372V30.9001L30.9067 37.0917H1.12051C0.81957 37.0917 0.550648 36.9701 0.345756 36.778C0.134461 36.5731 0 36.2914 0 35.9712V30.9193L3.099 27.8203H6.17879V29.7924C6.17879 30.1126 6.31325 30.4007 6.52454 30.5992C6.72303 30.7913 6.99836 30.9129 7.29929 30.9129H29.7926C30.1 30.9129 30.3817 30.7849 30.5866 30.5864C30.7915 30.3815 30.9131 30.1062 30.9131 29.7924V22.7556C30.9131 22.1346 30.4137 21.6351 29.7926 21.6351H21.6354L24.7216 18.5425L27.8077 15.45H35.9842C36.5349 15.45 36.9895 15.8469 37.0855 16.3656L37.0983 16.372Z" fill="white"/>
<path d="M55.436 27.1547H67.7103V28.6273H52.6123L64.9443 9.98853H52.4971V8.51587H67.7359L55.4296 27.1547H55.436Z" fill="white"/>
<path d="M89.2059 28.4739H87.4195L78.6156 11.788L69.8628 28.4739H67.9932L77.5975 10.1872V10.1744L78.6092 8.29199L79.576 10.1168L89.1995 28.4739H89.2059Z" fill="white"/>
<path d="M106.281 27.1548V28.6275H90.959V8.49683H92.4317V27.1484H106.281V27.1548Z" fill="white"/>
<path d="M108.482 28.6274H107.01V8.48389H108.482V28.6274Z" fill="white"/>
<path d="M119.074 15.1301C120.457 15.6552 121.571 16.5196 122.417 17.7297C123.294 18.9591 123.736 20.3165 123.736 21.8148C123.736 23.7932 123.025 25.4708 121.603 26.8602C120.182 28.2625 118.472 28.9668 116.475 28.9668C114.477 28.9668 112.793 28.2817 111.391 26.9051C109.976 25.5412 109.252 23.8829 109.214 21.93H110.661C110.699 23.4731 111.282 24.7921 112.415 25.8742C113.549 26.9691 114.9 27.5197 116.475 27.5197C118.05 27.5197 119.439 26.9563 120.56 25.8358C121.699 24.7217 122.276 23.3835 122.276 21.8212C122.276 20.2589 121.712 18.8886 120.579 17.7745C119.439 16.654 118.063 16.0906 116.462 16.0906C115.469 16.0906 114.605 15.7704 113.862 15.1365C113.747 15.0405 113.677 14.9765 113.638 14.9381C112.851 14.1633 112.46 13.2221 112.473 12.1272C112.473 11.0195 112.864 10.0783 113.651 9.30351C114.419 8.52876 115.354 8.13818 116.462 8.13818C117.57 8.13818 118.517 8.52876 119.311 9.30351C120.086 10.0783 120.477 11.0195 120.477 12.1272H119.029C119.029 11.4229 118.78 10.8274 118.274 10.328C117.768 9.82855 117.166 9.58524 116.462 9.58524C115.758 9.58524 115.162 9.83495 114.676 10.328C114.176 10.8274 113.933 11.4229 113.933 12.1272C113.933 12.8315 114.183 13.4014 114.676 13.8944C115.162 14.3938 115.758 14.6371 116.462 14.6371C117.352 14.6371 118.223 14.8036 119.074 15.1301V15.1301Z" fill="white"/>
<path d="M134.837 8.16382C137.693 8.16382 140.132 9.17547 142.155 11.1988C144.179 13.2221 145.184 15.6616 145.178 18.5173C145.178 21.373 144.166 23.8125 142.143 25.8358C140.119 27.8591 137.68 28.8708 134.824 28.8708C131.968 28.8708 129.529 27.8591 127.506 25.8358C125.482 23.8125 124.471 21.373 124.471 18.5173C124.477 15.6616 125.495 13.2221 127.518 11.1988C129.542 9.17547 131.981 8.16382 134.837 8.16382V8.16382ZM134.824 27.4045C137.276 27.4045 139.377 26.5401 141.118 24.8049C142.853 23.0633 143.718 20.9632 143.718 18.5109C143.718 16.0586 142.853 13.9584 141.118 12.2168C139.377 10.4817 137.276 9.61727 134.824 9.61727C132.372 9.61727 130.272 10.4817 128.53 12.2168C126.795 13.9584 125.931 16.0586 125.931 18.5109C125.931 20.9632 126.795 23.0633 128.53 24.8049C130.272 26.5401 132.372 27.4045 134.824 27.4045Z" fill="white"/>
<path d="M162.113 9.97563H148.251V28.6144L146.721 28.6272V8.47095H162.113V9.97563ZM160.551 20.2651H149.064V18.7924H160.551V20.2651Z" fill="white"/>
<path d="M177.999 9.98853H171.142V28.6273H169.669V9.98853H162.844V8.51587H177.999V9.98853V9.98853Z" fill="white"/>
</svg>
