<svg width="178" height="38" viewBox="0 0 178 38" fill="none" xmlns="http://www.w3.org/2000/svg">
<path d="M37.0983 1.12051V6.17879L33.9993 9.27778H30.9131V7.3057C30.9131 7.00476 30.7979 6.73584 30.5994 6.53095C30.3945 6.31965 30.1064 6.18519 29.7862 6.18519H6.18519V14.3425C6.18519 14.9635 6.68462 15.463 7.3057 15.463H15.463L12.3832 18.5492L9.29059 21.6418H1.12051C0.499425 21.6418 0 21.1423 0 20.5213V6.18519H0.0128058L3.0926 3.09259L6.18519 0H35.9778C36.298 0 36.5861 0.134461 36.791 0.345756C36.9831 0.544246 37.1047 0.81957 37.1047 1.12051H37.0983Z" fill="#1247C7"/>
<path d="M37.0983 16.372V30.9001L30.9067 37.0917H1.12051C0.81957 37.0917 0.550648 36.9701 0.345756 36.778C0.134461 36.5731 0 36.2914 0 35.9712V30.9193L3.099 27.8203H6.17879V29.7924C6.17879 30.1126 6.31325 30.4007 6.52454 30.5992C6.72303 30.7913 6.99836 30.9129 7.29929 30.9129H29.7926C30.1 30.9129 30.3817 30.7849 30.5866 30.5864C30.7915 30.3815 30.9131 30.1062 30.9131 29.7924V22.7556C30.9131 22.1346 30.4137 21.6351 29.7926 21.6351H21.6354L24.7216 18.5425L27.8077 15.45H35.9842C36.5349 15.45 36.9895 15.8469 37.0855 16.3656L37.0983 16.372Z" fill="#55CCF7"/>
<path d="M55.4365 27.1547H67.7108V28.6274H52.6128L64.9448 9.98859H52.4976V8.51593H67.7364L55.4301 27.1547H55.4365Z" fill="#1247C7"/>
<path d="M89.2064 28.474H87.42L78.616 11.788L69.8633 28.474H67.9937L77.598 10.1873V10.1745L78.6096 8.29205L79.5765 10.1169L89.2 28.474H89.2064Z" fill="#1247C7"/>
<path d="M106.282 27.1549V28.6276H90.9595V8.49689H92.4321V27.1485H106.282V27.1549Z" fill="#1247C7"/>
<path d="M108.483 28.6276H107.01V8.48407H108.483V28.6276Z" fill="#1247C7"/>
<path d="M119.075 15.1303C120.458 15.6553 121.572 16.5197 122.417 17.7298C123.294 18.9592 123.736 20.3166 123.736 21.8149C123.736 23.7934 123.025 25.4709 121.604 26.8604C120.182 28.2626 118.473 28.9669 116.475 28.9669C114.478 28.9669 112.794 28.2818 111.391 26.9052C109.976 25.5414 109.253 23.883 109.214 21.9301H110.661C110.7 23.4732 111.282 24.7922 112.416 25.8743C113.549 26.9692 114.9 27.5198 116.475 27.5198C118.05 27.5198 119.44 26.9564 120.56 25.8359C121.7 24.7218 122.276 23.3836 122.276 21.8213C122.276 20.259 121.713 18.8888 120.579 17.7747C119.44 16.6541 118.063 16.0907 116.462 16.0907C115.47 16.0907 114.606 15.7705 113.863 15.1367C113.748 15.0406 113.677 14.9766 113.639 14.9382C112.851 14.1634 112.461 13.2222 112.473 12.1273C112.473 11.0196 112.864 10.0784 113.652 9.30363C114.42 8.52888 115.355 8.13831 116.462 8.13831C117.57 8.13831 118.518 8.52888 119.312 9.30363C120.086 10.0784 120.477 11.0196 120.477 12.1273H119.03C119.03 11.423 118.78 10.8275 118.274 10.3281C117.769 9.82867 117.167 9.58536 116.462 9.58536C115.758 9.58536 115.163 9.83507 114.676 10.3281C114.177 10.8275 113.933 11.423 113.933 12.1273C113.933 12.8316 114.183 13.4015 114.676 13.8945C115.163 14.3939 115.758 14.6372 116.462 14.6372C117.352 14.6372 118.223 14.8037 119.075 15.1303Z" fill="#55CCF7"/>
<path d="M134.838 8.16382C137.694 8.16382 140.133 9.17547 142.156 11.1988C144.18 13.2221 145.185 15.6616 145.179 18.5173C145.179 21.373 144.167 23.8125 142.144 25.8358C140.12 27.8591 137.681 28.8708 134.825 28.8708C131.969 28.8708 129.53 27.8591 127.507 25.8358C125.483 23.8125 124.472 21.373 124.472 18.5173C124.478 15.6616 125.496 13.2221 127.519 11.1988C129.543 9.17547 131.982 8.16382 134.838 8.16382ZM134.825 27.4045C137.277 27.4045 139.378 26.5401 141.119 24.8049C142.854 23.0633 143.719 20.9632 143.719 18.5109C143.719 16.0586 142.854 13.9584 141.119 12.2168C139.378 10.4817 137.277 9.61727 134.825 9.61727C132.373 9.61727 130.273 10.4817 128.531 12.2168C126.796 13.9584 125.932 16.0586 125.932 18.5109C125.932 20.9632 126.796 23.0633 128.531 24.8049C130.273 26.5401 132.373 27.4045 134.825 27.4045Z" fill="#55CCF7"/>
<path d="M162.114 9.97569H148.252V28.6145L146.722 28.6273V8.47101H162.114V9.97569ZM160.552 20.2651H149.065V18.7925H160.552V20.2651Z" fill="#55CCF7"/>
<path d="M178 9.98859H171.142V28.6274H169.67V9.98859H162.844V8.51593H178V9.98859Z" fill="#55CCF7"/>
</svg>
