<svg width="34" height="34" viewBox="0 0 34 34" fill="none" xmlns="http://www.w3.org/2000/svg">
<path d="M29 21.125C29 23.4031 27.7351 25.25 25.25 25.25H8.75C6.26487 25.25 5 23.4031 5 21.125V12.875C5 10.5969 6.26487 8.75 8.75 8.75H25.25C27.7351 8.75 29 10.5969 29 12.875V21.125Z" fill="#EC1C24"/>
<path fill-rule="evenodd" clip-rule="evenodd" d="M19.9168 19.37C19.0535 20.7167 17.2561 21.566 15.3755 21.0166C13.6006 20.4969 12.3815 18.7772 12.4824 16.9224C12.5806 15.0594 13.9801 13.475 15.7989 13.1537C17.726 12.8113 19.274 13.8444 19.9351 14.9259C19.1518 14.1557 18.2409 13.8088 17.1744 13.9307C16.3389 14.0267 15.6406 14.4043 15.0939 15.0418C14.0236 16.2875 14.063 18.1558 15.1805 19.3314C15.8214 20.0057 16.6096 20.3585 17.54 20.3672C18.4696 20.3739 19.2583 20.0222 19.919 19.3719" fill="white"/>
<path d="M21.5861 15.6486L22.3474 16.3551L23.3629 16.1301L22.9252 17.0751L23.4536 17.9679L22.4224 17.8438L21.7327 18.6238L21.5336 17.6031L20.5781 17.1891L21.4864 16.6851L21.5861 15.6486Z" fill="white"/>
</svg>
