<svg width="22" height="27" viewBox="0 0 22 27" fill="none" xmlns="http://www.w3.org/2000/svg">
<path d="M0.667226 25.465C0.533995 26.0746 0.920166 26.6768 1.52976 26.81C2.13936 26.9433 2.74154 26.5571 2.87477 25.9475L0.667226 25.465ZM19.4445 25.9475C19.5777 26.5571 20.1799 26.9433 20.7895 26.81C21.3991 26.6768 21.7853 26.0746 21.652 25.465L19.4445 25.9475ZM16.3424 7.91614C16.3424 10.7785 14.022 13.0989 11.1596 13.0989V15.3586C15.27 15.3586 18.6021 12.0265 18.6021 7.91614H16.3424ZM11.1596 13.0989C8.29725 13.0989 5.97684 10.7785 5.97684 7.91614H3.71719C3.71719 12.0265 7.04928 15.3586 11.1596 15.3586V13.0989ZM5.97684 7.91614C5.97684 5.05376 8.29725 2.73334 11.1596 2.73334V0.473691C7.04928 0.473691 3.71719 3.80579 3.71719 7.91614H5.97684ZM11.1596 2.73334C14.022 2.73334 16.3424 5.05376 16.3424 7.91614H18.6021C18.6021 3.80579 15.27 0.473691 11.1596 0.473691V2.73334ZM11.1596 17.6541C14.9061 17.6541 18.354 20.9579 19.4445 25.9475L21.652 25.465C20.4262 19.8563 16.3444 15.3944 11.1596 15.3944V17.6541ZM2.87477 25.9475C3.96528 20.9579 7.41317 17.6541 11.1596 17.6541V15.3944C5.97485 15.3944 1.89304 19.8563 0.667226 25.465L2.87477 25.9475Z" fill="white"/>
</svg>
