<svg width="24" height="25" viewBox="0 0 24 25" fill="none" xmlns="http://www.w3.org/2000/svg">
<path d="M16.495 15.495C16.7683 15.2216 16.7683 14.7784 16.495 14.505C16.2216 14.2317 15.7784 14.2317 15.505 14.505L16.495 15.495ZM12.5 18.5L12.005 18.995C12.2784 19.2683 12.7216 19.2683 12.995 18.995L12.5 18.5ZM9.49497 14.505C9.22161 14.2317 8.77839 14.2317 8.50503 14.505C8.23166 14.7784 8.23166 15.2216 8.50503 15.495L9.49497 14.505ZM13.2 5.5C13.2 5.1134 12.8866 4.8 12.5 4.8C12.1134 4.8 11.8 5.1134 11.8 5.5L13.2 5.5ZM15.505 14.505L12.005 18.005L12.995 18.995L16.495 15.495L15.505 14.505ZM12.995 18.005L9.49497 14.505L8.50503 15.495L12.005 18.995L12.995 18.005ZM11.8 5.5L11.8 18.5L13.2 18.5L13.2 5.5L11.8 5.5Z" fill="white"/>
</svg>
