<svg width="22" height="20" viewBox="0 0 22 20" fill="none" xmlns="http://www.w3.org/2000/svg">
<path fill-rule="evenodd" clip-rule="evenodd" d="M5.12394 2.44867C5.12394 3.62094 4.23135 4.56964 2.83549 4.56964C1.49401 4.56964 0.601418 3.62094 0.629041 2.44867C0.601418 1.21941 1.49399 0.29834 2.86223 0.29834C4.23133 0.29834 5.09718 1.21941 5.12394 2.44867ZM0.741267 19.8999V6.24518H4.98495V19.899H0.741267V19.8999Z" fill="white"/>
<path fill-rule="evenodd" clip-rule="evenodd" d="M8.38469 10.6028C8.38469 8.89961 8.32857 7.44764 8.27246 6.24688H11.9585L12.1544 8.11752H12.2382C12.7967 7.25169 14.1926 5.94043 16.4543 5.94043C19.246 5.94043 21.3402 7.78344 21.3402 11.8027V19.9016H17.0965V12.3344C17.0965 10.5743 16.4827 9.37439 14.947 9.37439C13.7739 9.37439 13.0764 10.1841 12.7976 10.9653C12.6854 11.245 12.6301 11.6352 12.6301 12.0271V19.9016H8.3864V10.6028H8.38469Z" fill="white"/>
</svg>
