<svg width="425" height="241" viewBox="0 0 425 241" fill="none" xmlns="http://www.w3.org/2000/svg">
<path d="M274.783 3.79446V20.9238L264.288 31.4182H253.837V24.7399C253.837 23.7208 253.447 22.8101 252.775 22.1163C252.081 21.4008 251.105 20.9454 250.021 20.9454H170.099V48.5691C170.099 50.6724 171.79 52.3636 173.893 52.3636H201.517L191.088 62.8146L180.615 73.2874H152.948C150.845 73.2874 149.153 71.5961 149.153 69.4929V20.9454H149.197L159.626 10.4727L170.099 0H270.988C272.072 0 273.048 0.455336 273.742 1.17086C274.392 1.84303 274.804 2.77538 274.804 3.79446H274.783Z" fill="white"/>
<path d="M274.783 55.4421V104.64L253.815 125.607H152.948C151.929 125.607 151.018 125.195 150.324 124.545C149.609 123.851 149.153 122.897 149.153 121.813V104.705L159.648 94.2107H170.077V100.889C170.077 101.973 170.532 102.949 171.248 103.621C171.92 104.271 172.852 104.683 173.872 104.683H250.043C251.083 104.683 252.037 104.25 252.731 103.578C253.425 102.884 253.837 101.951 253.837 100.889V77.0597C253.837 74.9565 252.146 73.2653 250.043 73.2653H222.419L232.87 62.7925L243.321 52.3198H271.01C272.875 52.3198 274.414 53.6641 274.739 55.4204L274.783 55.4421Z" fill="white"/>
<path d="M9.95235 234.38H51.518V239.367H0.390288L42.1511 176.249H0V171.262H51.6047L9.93066 234.38H9.95235Z" fill="white"/>
<path d="M124.312 238.847H118.263L88.449 182.342L58.8089 238.847H52.4775L85.0015 176.921V176.878L88.4274 170.503L91.7014 176.683L124.29 238.847H124.312Z" fill="white"/>
<path d="M182.136 234.38V239.367H130.249V171.196H135.236V234.358H182.136V234.38Z" fill="white"/>
<path d="M189.589 239.368H184.602V171.154H189.589V239.368Z" fill="white"/>
<path d="M225.457 193.661C230.141 195.439 233.913 198.366 236.776 202.464C239.746 206.627 241.242 211.224 241.242 216.298C241.242 222.997 238.835 228.678 234.022 233.383C229.208 238.132 223.419 240.517 216.654 240.517C209.889 240.517 204.187 238.197 199.438 233.535C194.646 228.917 192.196 223.301 192.066 216.688H196.966C197.096 221.913 199.069 226.38 202.907 230.044C206.745 233.752 211.32 235.617 216.654 235.617C221.988 235.617 226.693 233.709 230.488 229.914C234.347 226.141 236.299 221.61 236.299 216.319C236.299 211.029 234.39 206.389 230.553 202.616C226.693 198.821 222.031 196.913 216.611 196.913C213.25 196.913 210.323 195.829 207.808 193.683C207.417 193.357 207.179 193.14 207.049 193.01C204.382 190.387 203.059 187.199 203.102 183.492C203.102 179.741 204.425 176.553 207.092 173.93C209.694 171.306 212.86 169.983 216.611 169.983C220.362 169.983 223.571 171.306 226.259 173.93C228.883 176.553 230.206 179.741 230.206 183.492H225.305C225.305 181.107 224.46 179.09 222.747 177.399C221.034 175.708 218.996 174.884 216.611 174.884C214.226 174.884 212.209 175.729 210.561 177.399C208.87 179.09 208.046 181.107 208.046 183.492C208.046 185.877 208.892 187.807 210.561 189.476C212.209 191.167 214.226 191.991 216.611 191.991C219.625 191.991 222.573 192.555 225.457 193.661Z" fill="white"/>
<path d="M278.836 170.07C288.507 170.07 296.768 173.496 303.619 180.347C310.471 187.199 313.875 195.46 313.854 205.131C313.854 214.801 310.428 223.062 303.576 229.914C296.724 236.766 288.463 240.192 278.793 240.192C269.122 240.192 260.861 236.766 254.01 229.914C247.158 223.062 243.732 214.801 243.732 205.131C243.754 195.46 247.201 187.199 254.053 180.347C260.905 173.496 269.166 170.07 278.836 170.07ZM278.793 235.226C287.097 235.226 294.209 232.299 300.107 226.423C305.983 220.525 308.91 213.413 308.91 205.109C308.91 196.805 305.983 189.693 300.107 183.795C294.209 177.919 287.097 174.992 278.793 174.992C270.488 174.992 263.376 177.919 257.479 183.795C251.603 189.693 248.676 196.805 248.676 205.109C248.676 213.413 251.603 220.525 257.479 226.423C263.376 232.299 270.488 235.226 278.793 235.226Z" fill="white"/>
<path d="M371.204 176.206H324.261V239.324L319.079 239.367V171.11H371.204V176.206ZM365.913 211.05H327.014V206.063H365.913V211.05Z" fill="white"/>
<path d="M425 176.249H401.777V239.367H396.79V176.249H373.677V171.262H425V176.249Z" fill="white"/>
</svg>
