<svg width="38" height="38" viewBox="0 0 38 38" fill="none" xmlns="http://www.w3.org/2000/svg">
<path d="M37.0983 1.12051V6.17879L33.9993 9.27779H30.9131V7.3057C30.9131 7.00476 30.7979 6.73584 30.5994 6.53095C30.3945 6.31965 30.1064 6.18519 29.7862 6.18519H6.18519V14.3425C6.18519 14.9635 6.68462 15.463 7.3057 15.463H15.463L12.3832 18.5492L9.29059 21.6418H1.12051C0.499425 21.6418 0 21.1423 0 20.5213V6.18519H0.0128058L3.0926 3.0926L6.18519 0H35.9778C36.298 0 36.5861 0.134461 36.791 0.345756C36.9831 0.544246 37.1047 0.81957 37.1047 1.12051H37.0983Z" fill="#1247C7"/>
<path d="M37.0983 16.372V30.9001L30.9067 37.0917H1.12051C0.81957 37.0917 0.550648 36.9701 0.345756 36.778C0.134461 36.5731 0 36.2914 0 35.9712V30.9193L3.099 27.8203H6.17879V29.7924C6.17879 30.1126 6.31325 30.4007 6.52454 30.5992C6.72303 30.7913 6.99836 30.9129 7.29929 30.9129H29.7926C30.1 30.9129 30.3817 30.7849 30.5866 30.5864C30.7915 30.3815 30.9131 30.1062 30.9131 29.7924V22.7556C30.9131 22.1346 30.4137 21.6351 29.7926 21.6351H21.6354L24.7216 18.5425L27.8077 15.45H35.9842C36.5349 15.45 36.9895 15.8469 37.0855 16.3656L37.0983 16.372Z" fill="#55CCF7"/>
</svg>
