<svg width="152" height="152" viewBox="0 0 152 152" fill="none" xmlns="http://www.w3.org/2000/svg">
<path d="M0 71.25C0 37.6624 0 20.8686 10.4343 10.4343C20.8686 0 37.6624 0 71.25 0H80.75C114.338 0 131.131 0 141.566 10.4343C152 20.8686 152 37.6624 152 71.25V80.75C152 114.338 152 131.131 141.566 141.566C131.131 152 114.338 152 80.75 152H71.25C37.6624 152 20.8686 152 10.4343 141.566C0 131.131 0 114.338 0 80.75V71.25Z" fill="#222426"/>
<path d="M121.2 33.2936V45.6482L113.636 53.2121H106.097V48.3974C106.094 47.672 105.804 46.9772 105.291 46.4647C104.778 45.9523 104.082 45.6639 103.357 45.6627H45.7055V65.5811C45.7049 65.9407 45.7752 66.2968 45.9123 66.6292C46.0495 66.9615 46.2508 67.2635 46.5048 67.518C46.7588 67.7725 47.0605 67.9743 47.3926 68.1121C47.7247 68.2498 48.0808 68.3207 48.4403 68.3207H68.3347L60.8141 75.8702L53.2646 83.4244H33.3221C32.9626 83.4244 32.6065 83.3536 32.2744 83.2158C31.9423 83.0781 31.6407 82.8762 31.3866 82.6218C31.1326 82.3673 30.9313 82.0653 30.7942 81.7329C30.657 81.4006 30.5867 81.0444 30.5873 80.6849V45.6675H30.6114L45.6959 30.5782H118.47C118.84 30.5779 119.207 30.6529 119.547 30.7986C119.887 30.9442 120.194 31.1575 120.449 31.4255C120.932 31.9276 121.201 32.5972 121.2 33.2936Z" fill="#1247C7"/>
<path d="M121.201 70.5726V106.071L106.073 121.199H33.3129C32.5876 121.199 31.892 120.911 31.3792 120.398C30.8663 119.885 30.5781 119.19 30.5781 118.465V106.12L38.1517 98.5461H45.706V103.361C45.706 104.086 45.9941 104.782 46.507 105.295C47.0198 105.807 47.7155 106.096 48.4408 106.096H103.381C104.105 106.093 104.797 105.804 105.307 105.292C105.563 105.04 105.766 104.74 105.904 104.41C106.042 104.079 106.112 103.724 106.111 103.366V86.1819C106.111 85.4566 105.823 84.761 105.31 84.2482C104.798 83.7353 104.102 83.4472 103.377 83.4472H83.4582L90.9643 75.8688L98.5042 68.3289H118.485C119.13 68.323 119.755 68.5448 120.252 68.9553C120.749 69.3658 121.085 69.9386 121.201 70.5726Z" fill="#55CCF7"/>
</svg>
