<svg width="24" height="19" viewBox="0 0 24 19" fill="none" xmlns="http://www.w3.org/2000/svg">
<path fill-rule="evenodd" clip-rule="evenodd" d="M23.2562 2.35528C22.4254 2.72433 21.5314 2.97287 20.5937 3.08509C21.551 2.51118 22.2861 1.60286 22.6318 0.520563C21.737 1.0523 20.7436 1.43717 19.6884 1.6458C18.8426 0.745009 17.6368 0.181641 16.3044 0.181641C13.7444 0.181641 11.6687 2.25737 11.6687 4.81738C11.6687 5.1804 11.7101 5.53439 11.7892 5.87407C7.93601 5.68126 4.5204 3.83525 2.23379 1.03046C1.83461 1.71509 1.6064 2.51119 1.6064 3.36076C1.6064 4.96877 2.42358 6.38774 3.66857 7.21923C2.90787 7.19513 2.19387 6.9865 1.56798 6.63929V6.69728C1.56798 8.94398 3.16696 10.8171 5.28637 11.2441C4.89773 11.3496 4.48801 11.4068 4.06549 11.4068C3.76648 11.4068 3.47576 11.3775 3.19257 11.3232C3.78229 13.1647 5.49499 14.5054 7.52327 14.543C5.9371 15.7857 3.9382 16.5276 1.76607 16.5276C1.39099 16.5276 1.02194 16.5058 0.659668 16.4621C2.71129 17.7771 5.14778 18.5453 7.76579 18.5453C16.2924 18.5453 20.9552 11.4814 20.9552 5.35589C20.9552 5.15479 20.9515 4.95446 20.9417 4.75638C21.8485 4.10112 22.6348 3.28469 23.2562 2.35528Z" fill="white"/>
</svg>
