<svg width="25" height="18" viewBox="0 0 25 18" fill="none" xmlns="http://www.w3.org/2000/svg">
<path fill-rule="evenodd" clip-rule="evenodd" d="M23.3218 1.42053C23.6976 1.79629 23.9683 2.26393 24.1071 2.77689C24.9064 5.9941 24.7217 11.0752 24.1226 14.4166C23.9838 14.9295 23.7131 15.3972 23.3373 15.7729C22.9615 16.1487 22.4939 16.4195 21.9809 16.5583C20.1031 17.0704 12.545 17.0704 12.545 17.0704C12.545 17.0704 4.98702 17.0704 3.10915 16.5583C2.59619 16.4195 2.12854 16.1487 1.75278 15.7729C1.37702 15.3972 1.10626 14.9295 0.967449 14.4166C0.163536 11.2133 0.383914 6.12912 0.951931 2.79241C1.09073 2.27946 1.3615 1.8118 1.73726 1.43604C2.11302 1.06028 2.58067 0.789515 3.09363 0.650716C4.9715 0.138563 12.5295 0.123047 12.5295 0.123047C12.5295 0.123047 20.0876 0.123047 21.9654 0.635191C22.4784 0.773999 22.946 1.04477 23.3218 1.42053ZM16.3939 8.59673L10.124 12.2283V4.96514L16.3939 8.59673Z" fill="white"/>
</svg>
