<svg width="25" height="11" viewBox="0 0 25 11" fill="none" xmlns="http://www.w3.org/2000/svg">
<path d="M1 4.8C0.613401 4.8 0.3 5.1134 0.3 5.5C0.3 5.8866 0.613401 6.2 1 6.2V4.8ZM24.495 5.99497C24.7683 5.72161 24.7683 5.27839 24.495 5.00503L20.0402 0.550252C19.7668 0.276886 19.3236 0.276886 19.0503 0.550252C18.7769 0.82362 18.7769 1.26684 19.0503 1.5402L23.01 5.5L19.0503 9.4598C18.7769 9.73316 18.7769 10.1764 19.0503 10.4497C19.3236 10.7231 19.7668 10.7231 20.0402 10.4497L24.495 5.99497ZM1 6.2H24V4.8H1V6.2Z" fill="#4841FF"/>
</svg>
