<svg width="15" height="20" viewBox="0 0 15 20" fill="none" xmlns="http://www.w3.org/2000/svg">
<path d="M6.06249 13.931H6.56249V13.3804L6.01446 13.4333L6.06249 13.931ZM9.43749 13.931L9.48553 13.4333L8.93749 13.3804V13.931H9.43749ZM9.21557 6.12724L8.95457 5.70076C8.78905 5.80206 8.69709 5.98998 8.71867 6.18284C8.74025 6.37569 8.87146 6.53864 9.05528 6.60085L9.21557 6.12724ZM6.28112 6.12545L6.44214 6.59882C6.62565 6.53639 6.75655 6.37353 6.77804 6.18089C6.79953 5.98825 6.70775 5.80055 6.54251 5.69922L6.28112 6.12545ZM1.5 16.3825C1.5 16.2505 1.55806 16.0839 1.74607 15.8837C1.93656 15.6809 2.23771 15.4702 2.65485 15.2711C3.48781 14.8736 4.692 14.5656 6.11053 14.4287L6.01446 13.4333C4.52167 13.5774 3.19461 13.9055 2.22416 14.3686C1.73958 14.5999 1.32098 14.8756 1.01715 15.1991C0.710841 15.5252 0.5 15.9248 0.5 16.3825H1.5ZM7.74999 18.4138C5.93012 18.4138 4.3048 18.1363 3.15259 17.7042C2.57464 17.4875 2.14166 17.2415 1.86215 16.9937C1.58206 16.7453 1.5 16.5377 1.5 16.3825H0.5C0.5 16.9264 0.795697 17.3846 1.19874 17.7419C1.60237 18.0998 2.15791 18.3992 2.80147 18.6406C4.09227 19.1246 5.84195 19.4138 7.74999 19.4138V18.4138ZM14 16.3825C14 16.5377 13.9179 16.7453 13.6378 16.9937C13.3583 17.2415 12.9253 17.4875 12.3474 17.7042C11.1952 18.1363 9.56987 18.4138 7.74999 18.4138V19.4138C9.65803 19.4138 11.4077 19.1246 12.6985 18.6406C13.3421 18.3992 13.8976 18.0998 14.3012 17.7419C14.7043 17.3846 15 16.9264 15 16.3825H14ZM9.38945 14.4287C10.808 14.5656 12.0122 14.8736 12.8451 15.2711C13.2623 15.4702 13.5634 15.6809 13.7539 15.8837C13.9419 16.0839 14 16.2505 14 16.3825H15C15 15.9248 14.7891 15.5252 14.4828 15.1991C14.179 14.8756 13.7604 14.5999 13.2758 14.3686C12.3054 13.9055 10.9783 13.5774 9.48553 13.4333L9.38945 14.4287ZM8.93749 13.931V16.1013H9.93749V13.931H8.93749ZM8.31249 16.7263H7.18749V17.7263H8.31249V16.7263ZM6.56249 16.1013V13.931H5.56249V16.1013H6.56249ZM7.18749 16.7263C6.84232 16.7263 6.56249 16.4465 6.56249 16.1013H5.56249C5.56249 16.9987 6.29003 17.7263 7.18749 17.7263V16.7263ZM8.93749 16.1013C8.93749 16.4465 8.65767 16.7263 8.31249 16.7263V17.7263C9.20995 17.7263 9.93749 16.9987 9.93749 16.1013H8.93749ZM9.47656 6.55371C10.4262 5.97254 11.0625 4.92397 11.0625 3.72632H10.0625C10.0625 4.56126 9.61991 5.29358 8.95457 5.70076L9.47656 6.55371ZM11.625 8.78881C11.625 7.32982 10.6831 6.09603 9.37585 5.65363L9.05528 6.60085C9.96949 6.91025 10.625 7.77224 10.625 8.78881H11.625ZM11.625 12.1638V8.78881H10.625V12.1638H11.625ZM9.99999 13.2263H10.5625V12.2263H9.99999V13.2263ZM8.93749 13.2888V16.1013H9.93749V13.2888H8.93749ZM6.56249 16.1013V13.2888H5.56249V16.1013H6.56249ZM4.9375 13.2263H5.49999V12.2263H4.9375V13.2263ZM3.875 8.78881V12.1638H4.875V8.78881H3.875ZM6.1201 5.65209C4.81506 6.09601 3.875 7.33199 3.875 8.78881H4.875C4.875 7.77303 5.53015 6.90904 6.44214 6.59882L6.1201 5.65209ZM4.4375 3.72632C4.4375 4.92227 5.07111 5.96994 6.01973 6.55169L6.54251 5.69922C5.87834 5.29192 5.4375 4.56056 5.4375 3.72632H4.4375ZM7.74999 0.413818C5.92036 0.413818 4.4375 1.8969 4.4375 3.72632H5.4375C5.4375 2.44914 6.47269 1.41382 7.74999 1.41382V0.413818ZM11.0625 3.72632C11.0625 1.8969 9.57962 0.413818 7.74999 0.413818V1.41382C9.0273 1.41382 10.0625 2.44914 10.0625 3.72632H11.0625ZM4.9375 12.2263C4.90298 12.2263 4.875 12.1983 4.875 12.1638H3.875C3.875 12.7506 4.35069 13.2263 4.9375 13.2263V12.2263ZM6.56249 13.2888C6.56249 12.702 6.0868 12.2263 5.49999 12.2263V13.2263C5.53451 13.2263 5.56249 13.2543 5.56249 13.2888H6.56249ZM9.99999 12.2263C9.41319 12.2263 8.93749 12.702 8.93749 13.2888H9.93749C9.93749 13.2543 9.96547 13.2263 9.99999 13.2263V12.2263ZM10.625 12.1638C10.625 12.1983 10.597 12.2263 10.5625 12.2263V13.2263C11.1493 13.2263 11.625 12.7506 11.625 12.1638H10.625Z" fill="white"/>
</svg>
