<svg width="51" height="51" viewBox="0 0 51 51" fill="none" xmlns="http://www.w3.org/2000/svg">
<rect width="50.6458" height="50.6458" rx="13.1069" fill="white"/>
<path d="M24.0095 26.2651C23.8772 26.2292 27.3339 20.3882 33.2185 16.1569C39.1031 11.9241 34.7811 20.6682 34.7811 20.6682C34.7811 20.6682 33.2512 24.5163 27.7666 29.4828C27.7666 29.4828 27.4008 27.174 24.0095 26.2651V26.2651Z" stroke="#BE34FF" stroke-width="1.07939" stroke-miterlimit="10"/>
<path d="M15.4951 35.0109C15.6453 34.9577 15.7984 34.9123 15.95 34.8654C16.2965 34.7559 17.3402 34.224 18.1594 31.6868C19.1496 28.6193 21.6161 27.7699 23.0791 27.9795C24.542 28.1891 25.6051 29.4484 25.7047 30.498C25.8043 31.5476 25.6378 33.2964 23.644 35.1501C21.6488 37.0037 18.0256 36.0949 17.0279 35.8493C16.0303 35.6037 15 35.1845 15 35.1845L15.4936 35.0109H15.4951Z" stroke="#BE34FF" stroke-width="1.07939" stroke-miterlimit="10"/>
</svg>
