<svg width="50" height="50" viewBox="0 0 50 50" fill="none" xmlns="http://www.w3.org/2000/svg">
<rect width="49.3797" height="49.3797" rx="12.7792" fill="white"/>
<path d="M29.4036 21.7872L27.4868 19.7705L15.0001 32.9081L16.9168 34.9248L29.4036 21.7872Z" stroke="#BE34FF" stroke-width="1.05241" stroke-miterlimit="10"/>
<path d="M24.8225 19.7071L21.4609 19.8687L19.7996 22.9465L19.646 19.4097L16.7192 17.6618L20.0808 17.5002L21.7435 14.4209L21.8972 17.9577L24.8225 19.7071Z" stroke="#BE34FF" stroke-width="0.751719" stroke-miterlimit="10"/>
<path d="M33.3765 17.5368L31.1268 17.6451L30.0149 19.7056L29.912 17.3385L27.9536 16.1688L30.2034 16.0605L31.3152 14L31.4181 16.367L33.3765 17.5368Z" stroke="#BE34FF" stroke-width="0.751719" stroke-miterlimit="10"/>
<path d="M33.9637 24.388L32.4547 24.4612L31.7096 25.843L31.64 24.2553L30.3267 23.4698L31.8357 23.3981L32.5822 22.0164L32.6504 23.6025L33.9637 24.388Z" stroke="#BE34FF" stroke-width="0.751719" stroke-miterlimit="10"/>
</svg>
