<svg width="46" height="46" viewBox="0 0 46 46" fill="none" xmlns="http://www.w3.org/2000/svg">
<rect width="45.5812" height="45.5812" rx="11.7962" fill="white"/>
<path d="M16.9041 25.2798C19.6125 25.2798 21.8082 22.9698 21.8082 20.1201C21.8082 17.2705 19.6125 14.9604 16.9041 14.9604C14.1956 14.9604 12 17.2705 12 20.1201C12 22.9698 14.1956 25.2798 16.9041 25.2798Z" stroke="#BE34FF" stroke-width="0.971452" stroke-miterlimit="10"/>
<path d="M16.4756 25.2588C17.6531 26.2274 19.2254 26.8201 20.9515 26.8201C22.4501 26.8201 23.831 26.3738 24.9403 25.6234" stroke="#BE34FF" stroke-width="0.971452" stroke-miterlimit="10"/>
<path d="M17.3945 14.9841C18.4235 14.3604 19.6425 14 20.9512 14C24.6095 14 27.5747 16.8213 27.5747 20.3014C27.5747 20.897 27.4877 21.4728 27.3258 22.0204" stroke="#BE34FF" stroke-width="0.971452" stroke-miterlimit="10"/>
<path d="M15.004 20.7972C15.3594 20.7972 15.6476 20.494 15.6476 20.12C15.6476 19.746 15.3594 19.4429 15.004 19.4429C14.6485 19.4429 14.3604 19.746 14.3604 20.12C14.3604 20.494 14.6485 20.7972 15.004 20.7972Z" stroke="#BE34FF" stroke-width="0.346947" stroke-miterlimit="10"/>
<path d="M16.9034 20.7972C17.2588 20.7972 17.547 20.494 17.547 20.12C17.547 19.746 17.2588 19.4429 16.9034 19.4429C16.5479 19.4429 16.2598 19.746 16.2598 20.12C16.2598 20.494 16.5479 20.7972 16.9034 20.7972Z" stroke="#BE34FF" stroke-width="0.346947" stroke-miterlimit="10"/>
<path d="M18.8057 20.7972C19.1612 20.7972 19.4493 20.494 19.4493 20.12C19.4493 19.746 19.1612 19.4429 18.8057 19.4429C18.4503 19.4429 18.1621 19.746 18.1621 20.12C18.1621 20.494 18.4503 20.7972 18.8057 20.7972Z" stroke="#BE34FF" stroke-width="0.346947" stroke-miterlimit="10"/>
<path d="M23.3233 20.7972C23.6788 20.7972 23.9669 20.494 23.9669 20.12C23.9669 19.746 23.6788 19.4429 23.3233 19.4429C22.9678 19.4429 22.6797 19.746 22.6797 20.12C22.6797 20.494 22.9678 20.7972 23.3233 20.7972Z" stroke="#BE34FF" stroke-width="0.346947" stroke-miterlimit="10"/>
<path d="M24.8187 21.1951C24.8017 20.5665 25.5627 20.2414 26.0052 20.688L31.3544 26.0867C31.8054 26.5419 31.4513 27.3128 30.8122 27.2673L28.5371 27.1052C28.3069 27.0888 28.0836 27.1879 27.9414 27.3696L26.2714 29.503C25.8706 30.015 25.0489 29.744 25.0314 29.0939L24.8187 21.1951Z" stroke="#BE34FF" stroke-width="0.971452" stroke-miterlimit="10"/>
</svg>
