<svg width="84" height="84" viewBox="0 0 84 84" fill="none" xmlns="http://www.w3.org/2000/svg">
<rect width="83.5656" height="83.5656" rx="21.6264" fill="white"/>
<path d="M27.2219 31.8312C26.7757 30.5241 28.1427 29.3356 29.3752 29.9592L52.972 41.8984C54.2339 42.5369 54.0406 44.3959 52.6743 44.7611L43.8113 47.1299C43.3288 47.2589 42.9388 47.6137 42.7649 48.0819L39.0619 58.0556C38.5577 59.4136 36.628 59.388 36.16 58.017L27.2219 31.8312Z" stroke="#BE34FF" stroke-width="1.781" stroke-miterlimit="10"/>
<path d="M50.3446 21C50.3446 20.5082 49.9459 20.1095 49.4541 20.1095C48.9623 20.1095 48.5636 20.5082 48.5636 21H50.3446ZM48.5636 36.6203C48.5636 37.1121 48.9623 37.5108 49.4541 37.5108C49.9459 37.5108 50.3446 37.1121 50.3446 36.6203H48.5636ZM48.5636 21V36.6203H50.3446V21H48.5636Z" fill="#BE34FF"/>
<path d="M42.0312 27.9198C41.5394 27.9198 41.1408 28.3185 41.1408 28.8103C41.1408 29.3021 41.5394 29.7008 42.0312 29.7008V27.9198ZM56.8778 29.7008C57.3696 29.7008 57.7683 29.3021 57.7683 28.8103C57.7683 28.3185 57.3696 27.9198 56.8778 27.9198V29.7008ZM42.0312 29.7008H56.8778V27.9198H42.0312V29.7008Z" fill="#BE34FF"/>
</svg>
