<svg width="330" height="257" viewBox="0 0 330 257" fill="none" xmlns="http://www.w3.org/2000/svg">
<path d="M7.72017 251.232H39.9947V255.137H0.296553L32.7193 206.127H0V202.223H40.0737L7.72017 251.232Z" fill="white"/>
<path d="M97.7636 255.187H93.0782L69.9176 211.308L46.9054 255.187H41.9629L67.2586 207.097L69.9176 202.154L72.468 206.949L97.7636 255.187Z" fill="white"/>
<path d="M141.416 251.233V255.137H101.125V202.184H105V251.233H141.416Z" fill="white"/>
<path d="M147.219 255.137H143.344V202.144H147.219V255.137Z" fill="white"/>
<path d="M175.063 219.621C178.632 220.937 181.704 223.331 183.851 226.471C186.133 229.586 187.353 233.354 187.33 237.216C187.37 239.695 186.89 242.154 185.923 244.437C184.957 246.72 183.523 248.775 181.716 250.472C178.146 254.005 173.332 255.996 168.309 256.017C163.286 256.037 158.456 254.085 154.858 250.58C153.064 248.907 151.631 246.885 150.647 244.638C149.662 242.39 149.148 239.966 149.135 237.512H152.94C152.965 239.465 153.387 241.393 154.181 243.177C154.974 244.961 156.123 246.566 157.557 247.892C158.961 249.28 160.629 250.374 162.463 251.109C164.296 251.844 166.258 252.205 168.233 252.172C170.231 252.205 172.215 251.829 174.063 251.068C175.91 250.306 177.583 249.175 178.978 247.743C180.397 246.367 181.526 244.719 182.297 242.898C183.067 241.077 183.464 239.119 183.464 237.142C183.464 235.164 183.067 233.207 182.297 231.386C181.526 229.564 180.397 227.917 178.978 226.54C177.566 225.109 175.879 223.979 174.019 223.218C172.159 222.456 170.163 222.08 168.153 222.112C165.645 222.147 163.212 221.252 161.323 219.601C161.026 219.354 160.829 219.176 160.73 219.077C159.733 218.127 158.946 216.98 158.418 215.708C157.89 214.437 157.634 213.069 157.665 211.693C157.647 210.312 157.913 208.942 158.447 207.668C158.981 206.394 159.772 205.244 160.769 204.289C161.722 203.296 162.87 202.511 164.141 201.984C165.411 201.456 166.778 201.198 168.153 201.225C169.546 201.205 170.928 201.466 172.217 201.993C173.506 202.519 174.676 203.3 175.656 204.289C176.645 205.252 177.428 206.408 177.954 207.684C178.481 208.961 178.742 210.332 178.721 211.713H174.915C174.931 210.831 174.764 209.955 174.423 209.142C174.083 208.329 173.577 207.595 172.938 206.987C172.319 206.353 171.577 205.85 170.758 205.511C169.939 205.171 169.06 205.001 168.173 205.01C167.298 204.996 166.429 205.165 165.622 205.505C164.815 205.845 164.088 206.35 163.488 206.987C162.852 207.598 162.349 208.332 162.009 209.145C161.669 209.958 161.499 210.832 161.511 211.713C161.529 213.466 162.235 215.142 163.478 216.379C164.721 217.616 166.4 218.315 168.153 218.326C170.518 218.318 172.862 218.758 175.063 219.621Z" fill="white"/>
<path d="M216.503 201.295C220.085 201.239 223.642 201.918 226.952 203.29C230.262 204.662 233.256 206.698 235.749 209.272C238.317 211.765 240.345 214.761 241.705 218.072C243.066 221.383 243.73 224.939 243.657 228.518C243.712 232.101 243.033 235.657 241.661 238.967C240.289 242.277 238.253 245.271 235.679 247.764C233.154 250.293 230.154 252.299 226.853 253.668C223.551 255.037 220.012 255.741 216.438 255.741C212.864 255.741 209.325 255.037 206.024 253.668C202.722 252.299 199.723 250.293 197.197 247.764C194.623 245.271 192.587 242.277 191.215 238.967C189.843 235.657 189.164 232.101 189.22 228.518C189.176 224.933 189.865 221.377 191.243 218.068C192.622 214.759 194.661 211.766 197.237 209.272C199.731 206.694 202.728 204.657 206.042 203.284C209.356 201.912 212.916 201.235 216.503 201.295ZM216.503 251.896C219.572 251.897 222.611 251.293 225.446 250.118C228.281 248.944 230.857 247.221 233.026 245.05C235.194 242.878 236.914 240.3 238.085 237.464C239.256 234.627 239.856 231.587 239.851 228.518C239.915 225.407 239.357 222.314 238.211 219.421C237.065 216.528 235.352 213.893 233.175 211.67C230.997 209.447 228.398 207.681 225.529 206.476C222.66 205.27 219.58 204.649 216.468 204.649C213.356 204.649 210.276 205.27 207.407 206.476C204.538 207.681 201.939 209.447 199.761 211.67C197.583 213.893 195.871 216.528 194.725 219.421C193.579 222.314 193.021 225.407 193.085 228.518C193.08 231.59 193.681 234.633 194.855 237.473C196.029 240.312 197.751 242.892 199.924 245.064C202.097 247.236 204.677 248.957 207.517 250.13C210.357 251.302 213.401 251.902 216.473 251.896H216.503Z" fill="white"/>
<path d="M288.227 206.058H251.771V255.068L247.758 255.137V202.114H288.237L288.227 206.058ZM284.125 233.123H253.916V229.239H284.125V233.123Z" fill="white"/>
<path d="M329.999 206.098H312.008V255.137H308.054V206.098H290.143V202.223H329.999V206.098Z" fill="white"/>
<path d="M206.238 31.1445H125.402C124.703 31.1445 124.031 31.4149 123.527 31.8991L108.219 46.5947C107.687 47.1054 107.386 47.8104 107.386 48.5479V87.3456C107.386 88.8413 108.599 90.0491 110.095 90.0491H131.316C132.034 90.0491 132.723 89.7637 133.231 89.2558L148.687 73.7995H127.021C125.525 73.7995 124.313 72.587 124.313 71.0913V50.1023C124.313 48.6066 125.525 47.3941 127.021 47.3941H189.988C191.484 47.3941 192.696 48.6066 192.696 50.1023V54.8418H200.376C201.095 54.8418 201.783 54.5564 202.291 54.0485L208.153 48.1873C208.66 47.6794 208.946 46.9905 208.946 46.2723V33.8528C208.946 32.3571 207.733 31.1445 206.238 31.1445Z" fill="white"/>
<path d="M110.095 132.027H190.93C191.629 132.027 192.301 131.757 192.805 131.273L208.113 116.577C208.645 116.067 208.946 115.361 208.946 114.624V75.8311C208.946 74.3354 207.733 73.1228 206.238 73.1228H185.016C184.298 73.1228 183.609 73.4082 183.101 73.916L167.645 89.3723H189.311C190.807 89.3723 192.019 90.5849 192.019 92.0806V113.07C192.019 114.565 190.807 115.778 189.311 115.778L126.344 115.778C124.848 115.778 123.636 114.565 123.636 113.07V108.33H115.956C115.237 108.33 114.549 108.615 114.041 109.123L108.179 114.985C107.672 115.492 107.386 116.181 107.386 116.9V129.319C107.386 130.815 108.599 132.027 110.095 132.027Z" fill="white"/>
</svg>
