<svg width="445" height="112" viewBox="0 0 445 112" fill="none" xmlns="http://www.w3.org/2000/svg">
<g clip-path="url(#clip0_165_1410)">
<path d="M101.71 95.6799L78.7101 98.7999L72.5001 109.8L56.8101 111.98L93.3901 49.2799L110.78 46.9199L118.81 103.57L102.91 105.72L101.71 95.6799ZM100.53 84.9899L98.11 64.1799L85.3301 87.0999L100.53 84.9899Z" fill="#52CDF8"/>
<path d="M134.44 66.0001C137.328 62.0874 140.974 58.7954 145.16 56.3201C149.295 53.8528 153.888 52.2505 158.66 51.6101C164.813 50.7701 169.58 51.6301 172.96 54.1901C176.34 56.7501 178.007 60.7768 177.96 66.2701L161.96 68.4301C161.467 64.9901 159.293 63.5301 155.44 64.0501C152.6 64.4723 150.002 65.8899 148.11 68.0501C145.801 70.67 144.219 73.8488 143.52 77.2701C142.6 81.1168 142.713 83.9635 143.86 85.8101C145.007 87.6568 146.957 88.3934 149.71 88.0201C153.57 87.5001 156.607 85.3334 158.82 81.5201L174.82 79.3601C172.305 84.9641 168.419 89.8442 163.52 93.5501C158.713 97.2422 153.019 99.6045 147.01 100.4C142.21 101.067 138.187 100.653 134.94 99.1601C133.378 98.4756 131.978 97.4701 130.831 96.2089C129.683 94.9478 128.814 93.4592 128.28 91.8401C127.08 88.4268 127.08 84.2601 128.28 79.3401C129.392 74.5163 131.489 69.9745 134.44 66.0001Z" fill="#52CDF8"/>
<path d="M229.47 68.9801L195.47 73.5901C194.99 76.5101 195.47 78.5901 196.79 79.9501C198.11 81.3101 200.08 81.7701 202.6 81.4201C204.412 81.1963 206.152 80.5734 207.694 79.5964C209.237 78.6195 210.543 77.3127 211.52 75.7701L227.52 73.6101C225.871 76.9394 223.693 79.9789 221.07 82.6101C218.312 85.427 215.126 87.7896 211.63 89.6101C208.096 91.4533 204.269 92.668 200.32 93.2001C195.513 93.8668 191.473 93.4534 188.2 91.9601C186.627 91.28 185.214 90.2783 184.051 89.0194C182.889 87.7604 182.003 86.2721 181.45 84.6501C180.217 81.2568 180.193 77.0934 181.38 72.1601C182.503 67.333 184.614 62.7908 187.58 58.8201C190.481 54.9129 194.134 51.6253 198.324 49.1506C202.515 46.6759 207.158 45.0641 211.98 44.4101C216.73 43.7601 220.71 44.1601 223.98 45.5801C225.523 46.2302 226.914 47.1946 228.064 48.4118C229.214 49.629 230.098 51.0724 230.66 52.6501C231.893 55.9368 231.937 59.9634 230.79 64.7301C230.427 66.1695 229.986 67.5882 229.47 68.9801ZM216.29 62.9801C216.89 60.4868 216.487 58.6234 215.08 57.3901C213.673 56.1568 211.653 55.7268 209.02 56.1001C206.494 56.4468 204.113 57.485 202.14 59.1001C200.044 60.8042 198.442 63.0381 197.5 65.5701L216.29 62.9801Z" fill="#52CDF8"/>
<path d="M262.87 23.1699L247.81 86.0999L232.81 88.0999L247.81 25.1999L262.87 23.1699Z" fill="#52CDF8"/>
<path d="M309.5 58.1001L275.5 62.71C275.02 65.63 275.5 67.71 276.82 69.07C278.14 70.43 280.11 70.8801 282.63 70.5401C284.441 70.3142 286.18 69.6905 287.723 68.7137C289.265 67.7369 290.572 66.4312 291.55 64.89L307.55 62.72C305.903 66.0503 303.724 69.0901 301.1 71.7201C298.34 74.5339 295.154 76.8961 291.66 78.7201C288.124 80.5647 284.293 81.7795 280.34 82.3101C275.54 82.9767 271.503 82.5634 268.23 81.07C266.658 80.3884 265.246 79.3861 264.084 78.1274C262.921 76.8687 262.034 75.3811 261.48 73.76C260.253 70.36 260.227 66.1967 261.4 61.27C263.101 54.0935 266.936 47.6008 272.401 42.6471C277.865 37.6935 284.702 34.5113 292.01 33.52C296.763 32.8534 300.763 33.2434 304.01 34.6901C305.555 35.337 306.948 36.3002 308.098 37.5179C309.249 38.7356 310.132 40.1806 310.69 41.76C311.923 45.0534 311.967 49.0767 310.82 53.83C310.457 55.2761 310.017 56.7015 309.5 58.1001ZM296.32 52.1001C296.92 49.6067 296.517 47.7434 295.11 46.51C293.703 45.2767 291.683 44.8367 289.05 45.1901C286.525 45.5418 284.146 46.5794 282.17 48.1901C280.072 49.8946 278.467 52.128 277.52 54.6601L296.32 52.1001Z" fill="#52CDF8"/>
<path d="M366.62 28.7901C369.193 31.9301 369.727 36.6435 368.22 42.9302L361.59 70.6401L346.66 72.6401L352.81 46.9101C353.563 43.7435 353.303 41.4101 352.03 39.9101C350.757 38.4101 348.68 37.8435 345.8 38.2101C342.99 38.5641 340.367 39.8121 338.32 41.7701C336.141 43.8608 334.64 46.557 334.01 49.5101L327.85 75.2601L312.85 77.2601L324.2 29.8301L339.2 27.8301L337.69 34.1001C339.779 31.7525 342.263 29.7894 345.03 28.3001C347.867 26.7471 350.965 25.7302 354.17 25.3001C359.93 24.5001 364.08 25.6635 366.62 28.7901Z" fill="#52CDF8"/>
<path d="M386.2 14.46C384.89 13.19 384.5 11.46 385.03 9.23003C385.633 6.8648 386.988 4.75926 388.89 3.23003C390.865 1.52111 393.3 0.432375 395.89 0.100029C398.47 -0.249971 400.41 0.220044 401.72 1.49004C403.03 2.76004 403.41 4.54005 402.87 6.81005C402.268 9.14052 400.924 11.2116 399.04 12.71C397.092 14.4039 394.689 15.4887 392.13 15.83C389.483 16.1967 387.507 15.74 386.2 14.46ZM398.41 19.76L387.07 67.1901L372.07 69.1901L383.42 21.76L398.41 19.76Z" fill="#52CDF8"/>
<path d="M414.88 51.82L436.14 48.9401L433.27 60.9401L395.27 66.1L398.03 54.54L424.12 27.89L403.92 30.6301L406.78 18.6301L444.21 13.5601L441.41 25.1L414.88 51.82Z" fill="#52CDF8"/>
<path d="M93.3399 49.2798L85.4099 50.3498L90.9199 56.3198L93.3399 49.2798Z" fill="#52CDF8"/>
<path d="M136.57 68.9302L128.64 70.0002L134.15 75.9702L136.57 68.9302Z" fill="#52CDF8"/>
<path d="M162.89 80.9702L154.96 82.0402L160.47 88.0102L162.89 80.9702Z" fill="#52CDF8"/>
<path d="M185.43 68.54L177.5 69.61L183.01 75.58L185.43 68.54Z" fill="#52CDF8"/>
<path d="M216.3 75.0298L208.37 76.1098L213.88 82.0698L216.3 75.0298Z" fill="#52CDF8"/>
<path d="M249.3 25L241.37 26.08L246.88 32.05L249.3 25Z" fill="#52CDF8"/>
<path d="M243.9 57.73L235.97 58.8L241.49 64.77L243.9 57.73Z" fill="#52CDF8"/>
<path d="M264.83 57.8501L256.9 58.9301L262.41 64.8901L264.83 57.8501Z" fill="#52CDF8"/>
<path d="M295.7 64.3501L287.77 65.4201L293.28 71.3901L295.7 64.3501Z" fill="#52CDF8"/>
<path d="M326.5 29.5L318.57 30.58L324.09 36.55L326.5 29.5Z" fill="#52CDF8"/>
<path d="M321.5 60.2598L313.57 61.3298L319.08 67.2998L321.5 60.2598Z" fill="#52CDF8"/>
<path d="M356.53 50.75L348.6 51.82L354.11 57.79L356.53 50.75Z" fill="#52CDF8"/>
<path d="M386.7 21.3398L378.78 22.4198L384.29 28.3798L386.7 21.3398Z" fill="#52CDF8"/>
<path d="M382.4 45.8799L374.47 46.9499L379.99 52.9199L382.4 45.8799Z" fill="#52CDF8"/>
<path d="M409.7 18.2202L401.77 19.3002L407.28 25.2702L409.7 18.2202Z" fill="#52CDF8"/>
<path d="M400.01 58.7202L392.09 59.7902L397.6 65.7602L400.01 58.7202Z" fill="#52CDF8"/>
<path d="M103.75 79.2998L95.8201 80.3698L101.33 86.3398L103.75 79.2998Z" fill="#52CDF8"/>
<path d="M69.71 93.8701L61.78 94.9401L67.29 100.91L69.71 93.8701Z" fill="#52CDF8"/>
<path d="M57.03 64.2998L24.45 68.7198C24.1536 68.7903 23.8437 68.7799 23.5527 68.6897C23.2618 68.5994 23.0004 68.4326 22.796 68.2067C22.5915 67.9808 22.4516 67.7041 22.3907 67.4056C22.3298 67.1071 22.3503 66.7977 22.45 66.5098C22.6697 65.7662 23.0918 65.0983 23.6693 64.5809C24.2468 64.0635 24.9568 63.7168 25.72 63.5798L58.3 59.1598C58.5997 59.0778 58.9162 59.0796 59.215 59.1649C59.5138 59.2502 59.7835 59.4156 59.9948 59.6435C60.2062 59.8713 60.351 60.1526 60.4136 60.457C60.4762 60.7614 60.4542 61.0771 60.35 61.3698C60.1255 62.1195 59.6954 62.7914 59.1087 63.3092C58.5219 63.8271 57.8018 64.1702 57.03 64.2998Z" fill="#52CDF8"/>
<path d="M34.6999 84.84L2.1099 89.26C1.81352 89.3305 1.50363 89.3201 1.21265 89.2298C0.921672 89.1396 0.660303 88.9728 0.455876 88.7469C0.25145 88.521 0.111497 88.2444 0.0506335 87.9458C-0.0102295 87.6473 0.0102246 87.3379 0.109899 87.05C0.330592 86.307 0.753089 85.6397 1.33039 85.1224C1.90769 84.6051 2.61718 84.2582 3.37992 84.12L35.9699 79.7C36.2663 79.6295 36.5762 79.6399 36.8672 79.7301C37.1581 79.8204 37.4195 79.9872 37.6239 80.2131C37.8284 80.439 37.9683 80.7157 38.0292 81.0142C38.0901 81.3127 38.0696 81.6221 37.9699 81.91C37.7523 82.6547 37.3308 83.3238 36.7529 83.8415C36.1751 84.3593 35.464 84.7052 34.6999 84.84Z" fill="#52CDF8"/>
<path d="M49.3199 100.38L16.7399 104.8C16.4395 104.88 16.1232 104.876 15.825 104.789C15.5267 104.702 15.2577 104.535 15.047 104.307C14.8362 104.079 14.6916 103.797 14.6287 103.493C14.5658 103.189 14.5869 102.873 14.6899 102.58C14.9106 101.837 15.3331 101.17 15.9104 100.653C16.4877 100.135 17.1972 99.7883 17.9599 99.6502L50.5499 95.2302C50.8469 95.1622 51.1567 95.1747 51.4472 95.2665C51.7377 95.3583 51.9984 95.5261 52.2023 95.7524C52.4063 95.9788 52.546 96.2555 52.6071 96.554C52.6682 96.8525 52.6485 97.1619 52.5499 97.4502C52.3333 98.1886 51.9172 98.8528 51.3473 99.3698C50.7774 99.8868 50.0758 100.236 49.3199 100.38Z" fill="#52CDF8"/>
</g>
<defs>
<clipPath id="clip0_165_1410">
<rect width="444.18" height="111.97" fill="white"/>
</clipPath>
</defs>
</svg>
