<svg width="39" height="39" viewBox="0 0 39 39" fill="none" xmlns="http://www.w3.org/2000/svg">
<circle cx="19.5258" cy="19.3277" r="19.2623" fill="#FCFCFD"/>
<path fill-rule="evenodd" clip-rule="evenodd" d="M15.9338 9.75505C16.9616 9.70777 17.2893 9.69727 19.9072 9.69727C22.5252 9.69727 22.8529 9.70865 23.8798 9.75505C24.9066 9.80146 25.6076 9.96519 26.2209 10.2025C26.8631 10.445 27.4458 10.8241 27.9277 11.3144C28.4183 11.7951 28.7968 12.3765 29.0386 13.0191C29.277 13.632 29.4399 14.3325 29.4872 15.3569C29.5346 16.3857 29.5451 16.7131 29.5451 19.3284C29.5451 21.9446 29.5337 22.2721 29.4872 23.2991C29.4408 24.3235 29.277 25.0239 29.0386 25.6368C28.7968 26.2796 28.4177 26.8619 27.9277 27.3433C27.4458 27.8336 26.8631 28.2118 26.2209 28.4535C25.6076 28.6917 24.9066 28.8545 23.8815 28.9018C22.8529 28.9491 22.5252 28.9596 19.9072 28.9596C17.2893 28.9596 16.9616 28.9482 15.9338 28.9018C14.9087 28.8554 14.2078 28.6917 13.5945 28.4535C12.9513 28.2118 12.3685 27.833 11.8868 27.3433C11.3965 26.8623 11.0171 26.2803 10.775 25.6377C10.5375 25.0248 10.3745 24.3244 10.3272 23.3C10.2799 22.2712 10.2694 21.9437 10.2694 19.3284C10.2694 16.7122 10.2808 16.3848 10.3272 15.3586C10.3737 14.3325 10.5375 13.632 10.775 13.0191C11.0174 12.3765 11.3971 11.7945 11.8877 11.3135C12.3687 10.8237 12.9509 10.4445 13.5936 10.2025C14.2069 9.96519 14.9078 9.80233 15.9329 9.75505H15.9338ZM23.8018 11.4887C22.7854 11.4423 22.4805 11.4326 19.9072 11.4326C17.3339 11.4326 17.029 11.4423 16.0127 11.4887C15.0726 11.5316 14.5626 11.6883 14.2227 11.8205C13.7732 11.9956 13.4516 12.2031 13.1143 12.5402C12.7946 12.8511 12.5485 13.2295 12.3941 13.6478C12.2618 13.9875 12.105 14.4971 12.062 15.4366C12.0156 16.4522 12.006 16.7569 12.006 19.3284C12.006 21.8999 12.0156 22.2046 12.062 23.2203C12.105 24.1598 12.2618 24.6693 12.3941 25.0091C12.5483 25.4267 12.7945 25.8058 13.1143 26.1166C13.4254 26.4362 13.8047 26.6822 14.2227 26.8363C14.5626 26.9686 15.0726 27.1253 16.0127 27.1682C17.029 27.2146 17.3331 27.2242 19.9072 27.2242C22.4814 27.2242 22.7854 27.2146 23.8018 27.1682C24.7419 27.1253 25.2519 26.9686 25.5918 26.8363C26.0413 26.6612 26.3628 26.4537 26.7002 26.1166C27.02 25.8058 27.2662 25.4267 27.4204 25.0091C27.5527 24.6693 27.7095 24.1598 27.7524 23.2203C27.7989 22.2046 27.8085 21.8999 27.8085 19.3284C27.8085 16.7569 27.7989 16.4522 27.7524 15.4366C27.7095 14.4971 27.5527 13.9875 27.4204 13.6478C27.2451 13.1986 27.0375 12.8773 26.7002 12.5402C26.3891 12.2207 26.0104 11.9748 25.5918 11.8205C25.2519 11.6883 24.7419 11.5316 23.8018 11.4887ZM18.6762 22.2974C19.3637 22.5834 20.1292 22.622 20.842 22.4066C21.5549 22.1913 22.1707 21.7353 22.5845 21.1165C22.9982 20.4978 23.1841 19.7547 23.1105 19.0142C23.0369 18.2737 22.7083 17.5817 22.1809 17.0563C21.8447 16.7205 21.4381 16.4634 20.9905 16.3035C20.5429 16.1436 20.0653 16.0848 19.5923 16.1314C19.1192 16.178 18.6623 16.3289 18.2546 16.5731C17.8469 16.8174 17.4984 17.1489 17.2343 17.5439C16.9702 17.9389 16.797 18.3874 16.7272 18.8573C16.6574 19.3272 16.6927 19.8067 16.8306 20.2613C16.9685 20.716 17.2056 21.1344 17.5247 21.4864C17.8438 21.8385 18.2371 22.1155 18.6762 22.2974ZM16.4043 15.8279C16.8643 15.3682 17.4104 15.0036 18.0115 14.7548C18.6125 14.506 19.2567 14.378 19.9072 14.378C20.5578 14.378 21.202 14.506 21.803 14.7548C22.404 15.0036 22.9501 15.3682 23.4102 15.8279C23.8702 16.2876 24.2351 16.8334 24.484 17.434C24.733 18.0346 24.8611 18.6783 24.8611 19.3284C24.8611 19.9785 24.733 20.6223 24.484 21.2229C24.2351 21.8235 23.8702 22.3692 23.4102 22.8289C22.4811 23.7573 21.2211 24.2789 19.9072 24.2789C18.5934 24.2789 17.3334 23.7573 16.4043 22.8289C15.4753 21.9005 14.9534 20.6414 14.9534 19.3284C14.9534 18.0155 15.4753 16.7563 16.4043 15.8279ZM25.9598 15.1152C26.0738 15.0078 26.165 14.8785 26.2282 14.7352C26.2913 14.5919 26.325 14.4373 26.3273 14.2808C26.3296 14.1242 26.3004 13.9687 26.2415 13.8236C26.1826 13.6785 26.0951 13.5467 25.9843 13.4359C25.8735 13.3252 25.7416 13.2378 25.5964 13.1789C25.4511 13.1201 25.2956 13.0909 25.1389 13.0932C24.9822 13.0955 24.8276 13.1292 24.6841 13.1922C24.5407 13.2553 24.4114 13.3465 24.3038 13.4604C24.0947 13.682 23.9802 13.9762 23.9847 14.2808C23.9891 14.5853 24.1121 14.8761 24.3276 15.0915C24.5431 15.3068 24.8342 15.4298 25.1389 15.4342C25.4436 15.4386 25.7381 15.3242 25.9598 15.1152Z" fill="#1247C7"/>
</svg>
