<svg width="24" height="24" viewBox="0 0 24 24" fill="none" xmlns="http://www.w3.org/2000/svg">
<circle cx="11.9432" cy="11.827" r="11.827" fill="#52CDF8"/>
<path fill-rule="evenodd" clip-rule="evenodd" d="M9.73769 5.94954C10.3687 5.92051 10.5699 5.91406 12.1773 5.91406C13.7848 5.91406 13.986 5.92105 14.6165 5.94954C15.247 5.97804 15.6773 6.07856 16.0539 6.22425C16.4482 6.37316 16.806 6.60594 17.1018 6.90699C17.4031 7.20213 17.6355 7.55909 17.784 7.95368C17.9303 8.32999 18.0304 8.76006 18.0594 9.38904C18.0885 10.0207 18.0949 10.2218 18.0949 11.8275C18.0949 13.4339 18.0879 13.6349 18.0594 14.2655C18.0309 14.8945 17.9303 15.3246 17.784 15.7009C17.6355 16.0955 17.4027 16.4531 17.1018 16.7486C16.806 17.0497 16.4482 17.2819 16.0539 17.4303C15.6773 17.5765 15.247 17.6765 14.6175 17.7055C13.986 17.7346 13.7848 17.741 12.1773 17.741C10.5699 17.741 10.3687 17.734 9.73769 17.7055C9.10827 17.6771 8.6779 17.5765 8.30133 17.4303C7.90642 17.2819 7.54863 17.0493 7.25284 16.7486C6.95179 16.4533 6.71882 16.0959 6.57017 15.7014C6.42438 15.3251 6.32432 14.895 6.29527 14.266C6.26622 13.6344 6.25977 13.4333 6.25977 11.8275C6.25977 10.2212 6.26676 10.0202 6.29527 9.39012C6.32378 8.76006 6.42438 8.32999 6.57017 7.95368C6.71904 7.55913 6.95219 7.20176 7.25338 6.90645C7.54874 6.60567 7.90618 6.37286 8.30079 6.22425C8.67737 6.07856 9.10774 5.97857 9.73715 5.94954H9.73769ZM14.5686 7.01397C13.9446 6.98548 13.7573 6.97956 12.1773 6.97956C10.5974 6.97956 10.4101 6.98548 9.78611 7.01397C9.20887 7.04031 8.89578 7.13654 8.68705 7.21772C8.41108 7.32523 8.21364 7.45264 8.00653 7.65962C7.8102 7.85049 7.6591 8.08285 7.56432 8.33967C7.48309 8.54825 7.3868 8.86113 7.36044 9.43796C7.33192 10.0616 7.32601 10.2486 7.32601 11.8275C7.32601 13.4064 7.33192 13.5935 7.36044 14.2171C7.3868 14.794 7.48309 15.1068 7.56432 15.3154C7.659 15.5719 7.81017 15.8046 8.00653 15.9955C8.1975 16.1917 8.43044 16.3428 8.68705 16.4374C8.89578 16.5185 9.20887 16.6148 9.78611 16.6411C10.4101 16.6696 10.5968 16.6755 12.1773 16.6755C13.7579 16.6755 13.9446 16.6696 14.5686 16.6411C15.1458 16.6148 15.4589 16.5185 15.6676 16.4374C15.9436 16.3299 16.141 16.2024 16.3482 15.9955C16.5445 15.8046 16.6957 15.5719 16.7904 15.3154C16.8716 15.1068 16.9679 14.794 16.9943 14.2171C17.0228 13.5935 17.0287 13.4064 17.0287 11.8275C17.0287 10.2486 17.0228 10.0616 16.9943 9.43796C16.9679 8.86113 16.8716 8.54825 16.7904 8.33967C16.6828 8.06388 16.5553 7.86659 16.3482 7.65962C16.1571 7.46343 15.9246 7.31245 15.6676 7.21772C15.4589 7.13654 15.1458 7.04031 14.5686 7.01397V7.01397ZM11.4215 13.6505C11.8436 13.8261 12.3137 13.8498 12.7513 13.7176C13.189 13.5853 13.5671 13.3053 13.8211 12.9254C14.0752 12.5455 14.1894 12.0893 14.1442 11.6346C14.099 11.1799 13.8972 10.755 13.5734 10.4325C13.3669 10.2263 13.1173 10.0685 12.8424 9.97025C12.5676 9.87205 12.2744 9.83597 11.9839 9.8646C11.6935 9.89323 11.413 9.98586 11.1626 10.1358C10.9123 10.2858 10.6984 10.4893 10.5362 10.7319C10.374 10.9744 10.2677 11.2498 10.2248 11.5383C10.182 11.8268 10.2036 12.1212 10.2883 12.4004C10.373 12.6795 10.5185 12.9364 10.7145 13.1526C10.9104 13.3687 11.1519 13.5388 11.4215 13.6505ZM10.0266 9.67826C10.309 9.39602 10.6443 9.17212 11.0134 9.01937C11.3824 8.86662 11.7779 8.788 12.1773 8.788C12.5768 8.788 12.9723 8.86662 13.3413 9.01937C13.7104 9.17212 14.0457 9.39602 14.3281 9.67826C14.6106 9.96051 14.8346 10.2956 14.9875 10.6644C15.1403 11.0331 15.219 11.4284 15.219 11.8275C15.219 12.2267 15.1403 12.622 14.9875 12.9907C14.8346 13.3595 14.6106 13.6946 14.3281 13.9768C13.7577 14.5469 12.984 14.8671 12.1773 14.8671C11.3707 14.8671 10.597 14.5469 10.0266 13.9768C9.45615 13.4068 9.1357 12.6337 9.1357 11.8275C9.1357 11.0214 9.45615 10.2483 10.0266 9.67826V9.67826ZM15.8936 9.24067C15.9636 9.17469 16.0196 9.09534 16.0584 9.00734C16.0971 8.91933 16.1178 8.82445 16.1192 8.7283C16.1206 8.63216 16.1027 8.53672 16.0665 8.44762C16.0304 8.35852 15.9767 8.27758 15.9086 8.20959C15.8406 8.1416 15.7596 8.08794 15.6704 8.0518C15.5813 8.01565 15.4858 7.99775 15.3896 7.99915C15.2933 8.00055 15.1984 8.02123 15.1103 8.05996C15.0223 8.09869 14.9429 8.15468 14.8768 8.22462C14.7484 8.36065 14.6781 8.54133 14.6809 8.7283C14.6836 8.91528 14.7591 9.09384 14.8914 9.22607C15.0238 9.35829 15.2024 9.43378 15.3896 9.43651C15.5767 9.43923 15.7575 9.36898 15.8936 9.24067V9.24067Z" fill="white"/>
</svg>
