<svg width="24" height="24" viewBox="0 0 24 24" fill="none" xmlns="http://www.w3.org/2000/svg">
<circle cx="12.1731" cy="11.827" r="11.827" fill="#52CDF8"/>
<path d="M17.424 5.91406H7.49129C6.96611 5.91406 6.54004 6.33983 6.54004 6.86465V16.7904C6.54004 17.3153 6.96611 17.741 7.49129 17.741H17.424C17.9492 17.741 18.3752 17.3153 18.3752 16.7904V6.86465C18.3752 6.33983 17.9492 5.91406 17.424 5.91406ZM17.424 16.7949C10.7992 16.7934 7.48685 16.7904 7.48685 16.7904C7.48833 10.1703 7.49129 6.86022 7.49129 6.86022C14.116 6.8617 17.4284 6.86465 17.4284 6.86465C17.4269 13.4848 17.424 16.7949 17.424 16.7949ZM8.29461 10.3477H10.0506V15.9921H8.29461V10.3477ZM9.17337 9.57599C9.73406 9.57599 10.1912 9.12065 10.1912 8.55887C10.1912 8.4253 10.1649 8.29304 10.1137 8.16963C10.0626 8.04623 9.98759 7.9341 9.89308 7.83966C9.79857 7.74521 9.68636 7.67029 9.56287 7.61917C9.43938 7.56806 9.30703 7.54175 9.17337 7.54175C9.0397 7.54175 8.90735 7.56806 8.78386 7.61917C8.66037 7.67029 8.54817 7.74521 8.45366 7.83966C8.35914 7.9341 8.28417 8.04623 8.23302 8.16963C8.18187 8.29304 8.15554 8.4253 8.15554 8.55887C8.15406 9.12065 8.60972 9.57599 9.17337 9.57599ZM12.9059 13.1995C12.9059 12.4632 13.0464 11.7507 13.9592 11.7507C14.8587 11.7507 14.872 12.5919 14.872 13.2468V15.9921H16.6266V12.8964C16.6266 11.3766 16.2981 10.2073 14.5214 10.2073C13.6678 10.2073 13.0953 10.6759 12.86 11.1194H12.8364V10.3477H11.1513V15.9921H12.9059V13.1995Z" fill="white"/>
</svg>
