<svg width="39" height="39" viewBox="0 0 39 39" fill="none" xmlns="http://www.w3.org/2000/svg">
<circle cx="19.3932" cy="19.3277" r="19.2623" fill="#FCFCFD"/>
<path d="M27.945 9.69727H11.7679C10.9126 9.69727 10.2186 10.3907 10.2186 11.2455V27.4114C10.2186 28.2661 10.9126 28.9596 11.7679 28.9596H27.945C28.8004 28.9596 29.4943 28.2661 29.4943 27.4114V11.2455C29.4943 10.3907 28.8004 9.69727 27.945 9.69727ZM27.945 27.4186C17.1555 27.4162 11.7607 27.4114 11.7607 27.4114C11.7631 16.6293 11.7679 11.2383 11.7679 11.2383C22.5575 11.2407 27.9523 11.2455 27.9523 11.2455C27.9499 22.0276 27.945 27.4186 27.945 27.4186ZM13.0763 16.9182H15.9363V26.1112H13.0763V16.9182ZM14.5075 15.6614C15.4207 15.6614 16.1652 14.9198 16.1652 14.0048C16.1652 13.7873 16.1223 13.5718 16.039 13.3709C15.9557 13.1699 15.8336 12.9873 15.6796 12.8334C15.5257 12.6796 15.343 12.5576 15.1418 12.4743C14.9407 12.3911 14.7252 12.3482 14.5075 12.3482C14.2898 12.3482 14.0742 12.3911 13.8731 12.4743C13.672 12.5576 13.4892 12.6796 13.3353 12.8334C13.1814 12.9873 13.0593 13.1699 12.9759 13.3709C12.8926 13.5718 12.8498 13.7873 12.8498 14.0048C12.8474 14.9198 13.5895 15.6614 14.5075 15.6614ZM20.5865 21.5628C20.5865 20.3638 20.8154 19.2032 22.3021 19.2032C23.767 19.2032 23.7887 20.5732 23.7887 21.6399V26.1112H26.6463V21.0693C26.6463 18.594 26.1114 16.6895 23.2177 16.6895C21.8274 16.6895 20.895 17.4528 20.5118 18.1751H20.4733V16.9182H17.7289V26.1112H20.5865V21.5628Z" fill="#1247C7"/>
</svg>
