<svg width="581" height="577" viewBox="0 0 581 577" fill="none" xmlns="http://www.w3.org/2000/svg">
<path d="M565.382 0H103.044C99.0451 0 95.2012 1.54642 92.3166 4.31569L4.76266 88.3674C1.71998 91.2884 0 95.3212 0 99.539V321.444C0 329.998 6.93509 336.906 15.4899 336.906H136.866C140.974 336.906 144.914 335.274 147.819 332.369L236.221 243.966H112.302C103.747 243.966 96.8121 237.031 96.8121 228.476V108.43C96.8121 99.8747 103.747 92.9396 112.302 92.9396H472.443C480.998 92.9396 487.933 99.8747 487.933 108.43V135.537H531.859C535.967 135.537 539.907 133.905 542.812 131L576.335 97.4765C579.24 94.5715 580.872 90.6316 580.872 86.5235V15.4899C580.872 6.93508 573.937 0 565.382 0Z" fill="#1247C6"/>
<path d="M15.4906 577L477.829 577C481.828 577 485.672 575.453 488.556 572.684L576.11 488.632C579.153 485.711 580.873 481.676 580.873 477.458V255.583C580.873 247.029 573.938 240.094 565.383 240.094H444.007C439.899 240.094 435.959 241.725 433.054 244.63L344.652 333.033H468.571C477.126 333.033 484.061 339.968 484.061 348.523V468.57C484.061 477.125 477.126 484.06 468.571 484.06L108.43 484.06C99.8753 484.06 92.9402 477.125 92.9402 468.57V441.463H49.0141C44.9059 441.463 40.966 443.095 38.0611 446L4.5376 479.523C1.63263 482.428 0.000671387 486.368 0.000671387 490.476V561.51C0.000671387 570.064 6.93573 577 15.4906 577Z" fill="#52CDF8"/>
</svg>
