<svg width="411" height="104" viewBox="0 0 411 104" fill="none" xmlns="http://www.w3.org/2000/svg">
<path d="M135.987 71.0613H163.528V74.4089H129.652L157.32 32.3905H129.399V29.043H163.595L135.987 71.0613Z" fill="white"/>
<path d="M212.823 74.4512H208.825L189.061 36.8313L169.424 74.4512H165.206L186.792 33.221L189.061 28.9836L191.237 33.0939L212.823 74.4512Z" fill="white"/>
<path d="M250.073 71.0615V74.4091H215.691V29.0092H218.998V71.0615H250.073Z" fill="white"/>
<path d="M255.023 74.4088H251.717V28.975H255.023V74.4088Z" fill="white"/>
<path d="M278.787 43.9586C281.833 45.0869 284.454 47.1395 286.286 49.8316C288.234 52.5028 289.275 55.7326 289.255 59.0438C289.289 61.169 288.88 63.2777 288.055 65.2348C287.23 67.1919 286.007 68.9542 284.464 70.4086C281.418 73.4381 277.31 75.1453 273.024 75.1627C268.737 75.1801 264.616 73.5065 261.545 70.5018C260.014 69.0673 258.791 67.3335 257.951 65.4068C257.111 63.4802 256.672 61.4014 256.661 59.2981H259.909C259.93 60.9723 260.29 62.6248 260.967 64.1547C261.644 65.6846 262.625 67.0598 263.848 68.1967C265.047 69.3871 266.47 70.325 268.035 70.9551C269.599 71.5853 271.273 71.8951 272.958 71.8663C274.663 71.8948 276.356 71.5727 277.933 70.9198C279.51 70.2669 280.937 69.297 282.127 68.0696C283.339 66.8892 284.302 65.4765 284.96 63.9152C285.617 62.3538 285.956 60.6757 285.956 58.9803C285.956 57.2848 285.617 55.6067 284.96 54.0454C284.302 52.484 283.339 51.0713 282.127 49.891C280.923 48.664 279.483 47.695 277.896 47.0425C276.308 46.3899 274.606 46.0674 272.891 46.0942C270.75 46.1242 268.674 45.3575 267.062 43.9416C266.809 43.7297 266.64 43.5772 266.556 43.4924C265.705 42.6783 265.033 41.6947 264.583 40.6045C264.133 39.5144 263.914 38.3417 263.941 37.1617C263.925 35.9777 264.152 34.8031 264.608 33.711C265.064 32.619 265.738 31.6328 266.59 30.814C267.402 29.9628 268.382 29.2898 269.466 28.8377C270.551 28.3855 271.717 28.1639 272.891 28.1868C274.079 28.17 275.258 28.3939 276.358 28.8453C277.458 29.2967 278.456 29.9663 279.293 30.814C280.137 31.6402 280.805 32.6308 281.254 33.7252C281.704 34.8197 281.926 35.9948 281.908 37.1787H278.66C278.674 36.4228 278.531 35.6723 278.241 34.9749C277.951 34.2775 277.519 33.6484 276.973 33.1277C276.445 32.5835 275.812 32.1527 275.113 31.8614C274.415 31.5701 273.664 31.4242 272.908 31.4327C272.16 31.4204 271.419 31.5648 270.731 31.8566C270.042 32.1485 269.422 32.5814 268.909 33.1277C268.367 33.6509 267.937 34.2805 267.647 34.9773C267.357 35.6741 267.212 36.4234 267.222 37.1787C267.238 38.6819 267.841 40.1189 268.901 41.1795C269.962 42.2402 271.394 42.8395 272.891 42.8484C274.908 42.8423 276.909 43.2189 278.787 43.9586Z" fill="white"/>
<path d="M314.148 28.2465C317.205 28.1987 320.24 28.781 323.064 29.9573C325.889 31.1335 328.444 32.8789 330.571 35.0857C332.763 37.2234 334.493 39.7917 335.654 42.6305C336.815 45.4693 337.382 48.5178 337.319 51.5863C337.367 54.658 336.787 57.7069 335.616 60.5449C334.446 63.3828 332.708 65.9496 330.512 68.0869C328.357 70.255 325.797 71.975 322.98 73.1485C320.163 74.322 317.143 74.9261 314.093 74.9261C311.043 74.9261 308.023 74.322 305.206 73.1485C302.388 71.975 299.829 70.255 297.674 68.0869C295.477 65.9496 293.74 63.3828 292.569 60.5449C291.398 57.7069 290.819 54.658 290.866 51.5863C290.829 48.513 291.417 45.4644 292.593 42.6271C293.769 39.7899 295.51 37.2237 297.707 35.0857C299.836 32.876 302.393 31.1289 305.221 29.9525C308.049 28.776 311.087 28.1954 314.148 28.2465ZM314.148 71.6294C316.766 71.6305 319.36 71.1126 321.779 70.1055C324.199 69.0983 326.397 67.6216 328.247 65.7598C330.098 63.8981 331.565 61.6879 332.564 59.2558C333.564 56.8238 334.076 54.2175 334.072 51.5863C334.126 48.919 333.65 46.2675 332.672 43.7872C331.694 41.307 330.233 39.0478 328.375 37.142C326.516 35.2362 324.298 33.7222 321.85 32.6886C319.402 31.655 316.773 31.1226 314.118 31.1226C311.463 31.1226 308.834 31.655 306.386 32.6886C303.938 33.7222 301.72 35.2362 299.862 37.142C298.003 39.0478 296.542 41.307 295.564 43.7872C294.586 46.2675 294.11 48.919 294.165 51.5863C294.16 54.2204 294.673 56.8294 295.675 59.2637C296.676 61.698 298.146 63.9097 300.001 65.7718C301.855 67.634 304.057 69.11 306.48 70.1152C308.904 71.1204 311.501 71.6349 314.122 71.6294H314.148Z" fill="white"/>
<path d="M375.352 32.3313H344.243V74.3496L340.818 74.409V28.9498H375.36L375.352 32.3313ZM371.851 55.5354H346.073V52.2048H371.851V55.5354Z" fill="white"/>
<path d="M411.001 32.3651H395.649V74.4089H392.275V32.3651H376.99V29.043H411.001V32.3651Z" fill="white"/>
<g filter="url(#filter0_d_74_1032)">
<path d="M91.2267 10H25.6221C25.0546 10 24.5092 10.2194 24.0999 10.6124L11.6762 22.5391C11.2445 22.9536 11.0004 23.5258 11.0004 24.1243V55.612C11.0004 56.8259 11.9845 57.8061 13.1984 57.8061H30.4213C31.0042 57.8061 31.5633 57.5745 31.9755 57.1623L44.5196 44.6182H26.9358C25.7219 44.6182 24.7378 43.6341 24.7378 42.4202V25.3859C24.7378 24.1719 25.7219 23.1879 26.9358 23.1879H78.0388C79.2527 23.1879 80.2368 24.1719 80.2368 25.3859V29.2323H86.4698C87.0527 29.2323 87.6118 29.0008 88.024 28.5886L92.7809 23.8317C93.1931 23.4195 93.4247 22.8604 93.4247 22.2774V12.198C93.4247 10.9841 92.4406 10 91.2267 10Z" fill="white"/>
</g>
<g filter="url(#filter1_d_74_1032)">
<path d="M13.198 91.876L78.8026 91.876C79.37 91.876 79.9155 91.6565 80.3248 91.2636L92.7484 79.3369C93.1802 78.9224 93.4243 78.3498 93.4243 77.7513V46.2679C93.4243 45.054 92.4402 44.0699 91.2263 44.0699H74.0034C73.4204 44.0699 72.8614 44.3015 72.4492 44.7137L59.9051 57.2578L77.4889 57.2578C78.7028 57.2578 79.6869 58.2419 79.6869 59.4558V76.4901C79.6869 77.704 78.7028 78.6881 77.4889 78.6881L26.3859 78.6881C25.172 78.6881 24.1879 77.704 24.1879 76.4901V72.6437L17.9549 72.6437C17.372 72.6437 16.8129 72.8752 16.4007 73.2874L11.6438 78.0443C11.2316 78.4565 11 79.0156 11 79.5985V89.678C11 90.8919 11.9841 91.876 13.198 91.876Z" fill="white"/>
</g>
<defs>
<filter id="filter0_d_74_1032" x="0.0105124" y="0.10909" width="104.404" height="69.7859" filterUnits="userSpaceOnUse" color-interpolation-filters="sRGB">
<feFlood flood-opacity="0" result="BackgroundImageFix"/>
<feColorMatrix in="SourceAlpha" type="matrix" values="0 0 0 0 0 0 0 0 0 0 0 0 0 0 0 0 0 0 127 0" result="hardAlpha"/>
<feOffset dy="1.09899"/>
<feGaussianBlur stdDeviation="5.49495"/>
<feComposite in2="hardAlpha" operator="out"/>
<feColorMatrix type="matrix" values="0 0 0 0 0 0 0 0 0 0 0 0 0 0 0 0 0 0 0.25 0"/>
<feBlend mode="normal" in2="BackgroundImageFix" result="effect1_dropShadow_74_1032"/>
<feBlend mode="normal" in="SourceGraphic" in2="effect1_dropShadow_74_1032" result="shape"/>
</filter>
<filter id="filter1_d_74_1032" x="0.0101156" y="34.179" width="104.404" height="69.7859" filterUnits="userSpaceOnUse" color-interpolation-filters="sRGB">
<feFlood flood-opacity="0" result="BackgroundImageFix"/>
<feColorMatrix in="SourceAlpha" type="matrix" values="0 0 0 0 0 0 0 0 0 0 0 0 0 0 0 0 0 0 127 0" result="hardAlpha"/>
<feOffset dy="1.09899"/>
<feGaussianBlur stdDeviation="5.49495"/>
<feComposite in2="hardAlpha" operator="out"/>
<feColorMatrix type="matrix" values="0 0 0 0 0 0 0 0 0 0 0 0 0 0 0 0 0 0 0.25 0"/>
<feBlend mode="normal" in2="BackgroundImageFix" result="effect1_dropShadow_74_1032"/>
<feBlend mode="normal" in="SourceGraphic" in2="effect1_dropShadow_74_1032" result="shape"/>
</filter>
</defs>
</svg>
