<svg width="253" height="51" viewBox="0 0 253 51" fill="none" xmlns="http://www.w3.org/2000/svg">
<path d="M48.955 0.801758H8.94419C8.58801 0.801758 8.24564 0.939499 7.98869 1.18616L0.424219 8.44806C0.153201 8.70824 0 9.06596 0 9.44165V28.6183C0 29.3803 0.61772 29.9959 1.37972 29.9959H11.8444C12.2103 29.9959 12.5613 29.8505 12.82 29.5918L20.4694 21.9423H9.76883C9.00683 21.9423 8.38912 21.3246 8.38912 20.5626V10.235C8.38912 9.47303 9.00684 8.85531 9.76883 8.85531H40.9014C41.6634 8.85531 42.2811 9.47303 42.2811 10.235V12.5465H46.072C46.4379 12.5465 46.7888 12.4012 47.0476 12.1424L49.9306 9.25942C50.1893 9.00067 50.3347 8.64974 50.3347 8.28381V2.18147C50.3347 1.41948 49.717 0.801758 48.955 0.801758Z" fill="#1247C6"/>
<path d="M1.38096 50.8018L41.3917 50.8018C41.7479 50.8018 42.0903 50.664 42.3472 50.4174L49.9117 43.1555C50.1827 42.8953 50.3359 42.5358 50.3359 42.1601V22.9874C50.3359 22.2254 49.7182 21.6076 48.9562 21.6076H38.4915C38.1256 21.6076 37.7747 21.753 37.5159 22.0117L29.8665 29.6612L40.5671 29.6612C41.3291 29.6612 41.9468 30.2789 41.9468 31.0409V41.3685C41.9468 42.1305 41.3291 42.7482 40.5671 42.7482L9.43451 42.7482C8.67252 42.7482 8.05479 42.1305 8.05479 41.3685V39.057H4.26395C3.89803 39.057 3.54709 39.2024 3.28835 39.4611L0.405354 42.3441C0.146606 42.6028 0.00124359 42.9538 0.00124359 43.3197V49.422C0.00124359 50.184 0.618965 50.8018 1.38096 50.8018Z" fill="#52CDF8"/>
<path d="M75.2154 37.3881H91.8584V39.4016H71.3873L88.1067 14.1287H71.2344V12.1152H91.8992L75.2154 37.3881Z" fill="#1247C7"/>
<path d="M123.579 39.4627H121.163L109.22 16.8354L97.3534 39.4627H94.8047L107.849 14.6639L109.22 12.1152L110.535 14.5875L123.579 39.4627Z" fill="#1247C7"/>
<path d="M147.246 37.4085V39.422H126.469V12.1152H128.467V37.4085H147.246Z" fill="#1247C7"/>
<path d="M152.147 39.4423H150.148V12.1152H152.147V39.4423Z" fill="#1247C7"/>
<path d="M168.417 21.12C170.258 21.7987 171.842 23.0332 172.949 24.6525C174.126 26.2591 174.755 28.2018 174.743 30.1934C174.763 31.4716 174.516 32.7399 174.018 33.9171C173.519 35.0942 172.78 36.1542 171.848 37.029C170.007 38.8511 167.525 39.8779 164.935 39.8884C162.344 39.8989 159.854 38.8923 157.998 37.085C157.073 36.2222 156.334 35.1794 155.826 34.0205C155.319 32.8617 155.054 31.6114 155.047 30.3463H157.009C157.022 31.3533 157.24 32.3472 157.649 33.2674C158.058 34.1876 158.65 35.0148 159.39 35.6986C160.114 36.4146 160.974 36.9787 161.92 37.3577C162.865 37.7367 163.877 37.923 164.895 37.9057C165.925 37.9229 166.949 37.7292 167.901 37.3365C168.854 36.9437 169.717 36.3603 170.436 35.6221C171.168 34.9122 171.75 34.0625 172.147 33.1234C172.545 32.1843 172.75 31.1749 172.75 30.1551C172.75 29.1354 172.545 28.126 172.147 27.1869C171.75 26.2478 171.168 25.3981 170.436 24.6882C169.708 23.9502 168.838 23.3674 167.879 22.9749C166.92 22.5824 165.891 22.3884 164.854 22.4046C163.561 22.4226 162.306 21.9614 161.332 21.1098C161.179 20.9824 161.077 20.8906 161.026 20.8397C160.512 20.35 160.106 19.7584 159.834 19.1027C159.562 18.447 159.43 17.7417 159.446 17.0319C159.436 16.3198 159.574 15.6133 159.849 14.9564C160.124 14.2996 160.532 13.7065 161.046 13.214C161.538 12.7019 162.13 12.2972 162.785 12.0252C163.44 11.7533 164.145 11.62 164.854 11.6338C165.572 11.6236 166.285 11.7583 166.95 12.0298C167.614 12.3013 168.218 12.7041 168.723 13.214C169.233 13.7109 169.637 14.3067 169.908 14.965C170.18 15.6232 170.314 16.3301 170.303 17.0421H168.341C168.349 16.5875 168.263 16.1361 168.087 15.7166C167.912 15.2971 167.651 14.9188 167.321 14.6056C167.002 14.2783 166.62 14.0192 166.197 13.8439C165.775 13.6687 165.322 13.581 164.864 13.5861C164.413 13.5787 163.965 13.6655 163.549 13.8411C163.133 14.0166 162.758 14.277 162.448 14.6056C162.121 14.9203 161.861 15.2989 161.686 15.718C161.51 16.1372 161.423 16.5878 161.429 17.0421C161.438 17.9463 161.803 18.8106 162.443 19.4485C163.084 20.0865 163.95 20.447 164.854 20.4523C166.073 20.4486 167.282 20.6752 168.417 21.12Z" fill="#1247C7"/>
<path d="M191.719 11.6347C193.566 11.6059 195.4 11.9561 197.107 12.6636C198.814 13.3711 200.358 14.421 201.643 15.7483C202.968 17.034 204.014 18.5788 204.715 20.2862C205.417 21.9937 205.759 23.8273 205.721 25.6729C205.75 27.5204 205.4 29.3543 204.692 31.0612C203.985 32.7682 202.935 34.312 201.608 35.5975C200.305 36.9016 198.759 37.9361 197.056 38.6419C195.354 39.3478 193.529 39.7111 191.686 39.7111C189.843 39.7111 188.018 39.3478 186.315 38.6419C184.613 37.9361 183.066 36.9016 181.764 35.5975C180.436 34.312 179.387 32.7682 178.679 31.0612C177.972 29.3543 177.621 27.5204 177.65 25.6729C177.628 23.8244 177.983 21.9907 178.693 20.2842C179.404 18.5777 180.456 17.0342 181.784 15.7483C183.07 14.4192 184.616 13.3683 186.325 12.6608C188.034 11.9532 189.87 11.6039 191.719 11.6347ZM191.719 37.7282C193.301 37.7289 194.869 37.4174 196.331 36.8116C197.793 36.2058 199.121 35.3176 200.239 34.1979C201.358 33.0781 202.244 31.7487 202.848 30.2859C203.452 28.8231 203.762 27.2555 203.759 25.6729C203.792 24.0686 203.504 22.4738 202.913 20.982C202.322 19.4902 201.439 18.1313 200.316 16.9851C199.193 15.8388 197.853 14.9281 196.374 14.3064C194.894 13.6848 193.306 13.3645 191.701 13.3645C190.096 13.3645 188.508 13.6848 187.028 14.3064C185.549 14.9281 184.209 15.8388 183.086 16.9851C181.963 18.1313 181.08 19.4902 180.489 20.982C179.898 22.4738 179.61 24.0686 179.643 25.6729C179.64 27.2572 179.951 28.8265 180.556 30.2906C181.161 31.7548 182.049 33.0851 183.17 34.2051C184.29 35.3251 185.621 36.2129 187.085 36.8175C188.55 37.4221 190.119 37.7316 191.704 37.7282H191.719Z" fill="#1247C7"/>
<path d="M229.49 14.1491H210.691V39.422L208.621 39.4576V12.1152H229.495L229.49 14.1491ZM227.374 28.1057H211.797V26.1025H227.374V28.1057Z" fill="#1247C7"/>
<path d="M252.943 14.1134H243.666V39.4016H241.627V14.1134H232.391V12.1152H252.943V14.1134Z" fill="#1247C7"/>
</svg>
