<svg width="28" height="28" viewBox="0 0 28 28" fill="none" xmlns="http://www.w3.org/2000/svg">
<path d="M17.7143 1H25.1429C26.1685 1 27 1.83147 27 2.85714V10.2857C27 11.3114 26.1685 12.1429 25.1429 12.1429H17.7143C16.6886 12.1429 15.8571 11.3114 15.8571 10.2857V2.85714C15.8571 1.83147 16.6886 1 17.7143 1ZM2.85714 1H10.2857C11.3114 1 12.1429 1.83147 12.1429 2.85714V10.2857C12.1429 11.3114 11.3114 12.1429 10.2857 12.1429H2.85714C1.83147 12.1429 1 11.3114 1 10.2857V2.85714C1 1.83147 1.83147 1 2.85714 1ZM17.7143 15.8571H25.1429C26.1685 15.8571 27 16.6886 27 17.7143V25.1429C27 26.1685 26.1685 27 25.1429 27H17.7143C16.6886 27 15.8571 26.1685 15.8571 25.1429V17.7143C15.8571 16.6886 16.6886 15.8571 17.7143 15.8571ZM2.85714 15.8571H10.2857C11.3114 15.8571 12.1429 16.6886 12.1429 17.7143V25.1429C12.1429 26.1685 11.3114 27 10.2857 27H2.85714C1.83147 27 1 26.1685 1 25.1429V17.7143C1 16.6886 1.83147 15.8571 2.85714 15.8571Z" stroke="#1247C7" stroke-width="1.39286" stroke-linecap="round" stroke-linejoin="round"/>
</svg>
