<svg width="590" height="196" viewBox="0 0 590 196" fill="none" xmlns="http://www.w3.org/2000/svg">
<path d="M0.0017361 38.6819C-0.00217013 40.1911 0.0017361 41.762 0.0017361 43.3992V81.5966C0.0017361 105.212 0.00173616 114.301 5.73022 120.448C11.4587 126.593 21.015 131.315 40.1242 133.636L538.122 193.502C562.291 196.439 574.377 197.908 582.188 191.427C589.998 184.946 589.998 173.451 589.998 150.458V43.3992C589.998 41.762 590.002 40.1911 589.998 38.6819V0H0.0017361V38.6819Z" fill="#1247C7"/>
<path d="M0.0017361 34.8833C-0.00217013 36.2443 0.0017361 37.6609 0.0017361 39.1374V92.3514C0.0017361 108.745 0.00173616 116.942 5.73022 122.485C11.4587 128.027 21.0153 129.074 40.1246 131.168L538.122 185.747C562.291 188.396 574.377 189.721 582.188 183.876C589.998 178.032 589.998 167.665 589.998 146.931V39.1374C589.998 37.6609 590.002 36.2443 589.998 34.8833V0H0.0017361V34.8833Z" fill="#80DEFF"/>
</svg>
