<svg width="24" height="24" viewBox="0 0 24 24" fill="none" xmlns="http://www.w3.org/2000/svg">
<circle cx="11.827" cy="11.827" r="11.827" fill="#52CDF8"/>
<path d="M17 8.06756C16.5955 8.24797 16.1609 8.36986 15.7041 8.42496C16.1755 8.14109 16.5281 7.69431 16.6962 7.16798C16.2534 7.43273 15.7687 7.61909 15.2632 7.71895C14.9233 7.35368 14.4731 7.11158 13.9825 7.03023C13.4919 6.94887 12.9883 7.03282 12.5499 7.26903C12.1116 7.50525 11.7629 7.88051 11.5582 8.33656C11.3535 8.79262 11.3041 9.30394 11.4176 9.79116C10.5203 9.74581 9.64243 9.51107 8.84104 9.10216C8.03966 8.69326 7.33265 8.11933 6.76592 7.41762C6.57214 7.75405 6.46072 8.14411 6.46072 8.55953C6.4605 8.9335 6.552 9.30175 6.72711 9.63159C6.90221 9.96143 7.1555 10.2427 7.4645 10.4504C7.10614 10.4389 6.75569 10.3414 6.44231 10.1661V10.1954C6.44227 10.7199 6.62254 11.2282 6.95252 11.6342C7.28251 12.0402 7.74189 12.3187 8.25271 12.4226C7.92027 12.5132 7.57173 12.5265 7.23342 12.4616C7.37754 12.9129 7.65828 13.3076 8.03634 13.5903C8.41439 13.8731 8.87083 14.0298 9.34176 14.0385C8.54233 14.6701 7.55504 15.0127 6.53871 15.0112C6.35868 15.0112 6.1788 15.0007 6 14.9795C7.03163 15.6471 8.23253 16.0014 9.459 16C13.6108 16 15.8804 12.5392 15.8804 9.53762C15.8804 9.4401 15.878 9.34161 15.8736 9.24409C16.3151 8.92277 16.6962 8.52486 16.999 8.06903L17 8.06756V8.06756Z" fill="white"/>
</svg>
